<?xml version="1.0" standalone="no"?>
<!DOCTYPE svg PUBLIC "-//W3C//DTD SVG 20010904//EN"
 "http://www.w3.org/TR/2001/REC-SVG-20010904/DTD/svg10.dtd">
<svg version="1.0" xmlns="http://www.w3.org/2000/svg"
 width="662.000000pt" height="1124.000000pt" viewBox="0 0 662.000000 1124.000000"
 preserveAspectRatio="xMidYMid meet">
<metadata>
Created by potrace 1.13, written by Peter Selinger 2001-2015
</metadata>
<g transform="translate(0.000000,1124.000000) scale(0.100000,-0.100000)"
fill="#000000" stroke="none">
<path d="M2898 11208 c-18 -18 -41 -44 -50 -58 -15 -24 -17 -24 -49 -11 -64
26 -105 25 -154 -3 -43 -26 -49 -27 -143 -20 -88 6 -103 4 -150 -16 -57 -25
-108 -75 -118 -117 -6 -22 8 -161 33 -334 4 -29 -1 -43 -31 -82 -20 -26 -57
-88 -82 -139 -26 -51 -52 -96 -58 -100 -25 -17 -78 -6 -158 32 -59 27 -110 43
-164 51 -97 13 -123 26 -199 99 -33 31 -76 64 -95 72 -62 28 -134 40 -176 30
-22 -6 -51 -13 -66 -16 -14 -3 -50 -26 -79 -51 -44 -37 -60 -45 -93 -45 -127
-1 -258 -110 -351 -294 -44 -86 -168 -185 -268 -212 -61 -18 -137 -75 -161
-123 -7 -14 -19 -64 -26 -111 -17 -108 -26 -125 -113 -219 -43 -46 -86 -105
-107 -147 -30 -59 -35 -79 -34 -139 0 -89 23 -135 74 -148 50 -13 63 -26 56
-60 -5 -25 1 -36 47 -83 32 -34 67 -60 92 -68 30 -10 45 -23 60 -52 79 -151
116 -206 186 -279 42 -45 84 -95 93 -112 31 -62 68 -73 166 -52 68 14 112 55
151 136 17 36 35 61 39 57 5 -5 12 -51 16 -101 l7 -93 -37 -47 c-25 -32 -36
-57 -36 -79 0 -47 -15 -80 -60 -135 -70 -83 -92 -154 -75 -237 6 -27 3 -38
-16 -58 -21 -23 -24 -36 -27 -134 -3 -63 0 -122 7 -141 8 -24 7 -37 -4 -59
-19 -38 -19 -118 0 -164 9 -21 34 -57 56 -81 36 -39 38 -45 28 -71 -27 -71 46
-245 130 -311 64 -50 92 -93 102 -154 10 -63 44 -109 114 -155 l52 -35 12 -86
c12 -94 19 -107 89 -155 47 -32 52 -56 30 -130 -9 -31 -9 -78 1 -211 7 -95 16
-190 21 -212 5 -22 16 -78 25 -125 10 -47 26 -125 36 -175 43 -202 44 -217 11
-335 -6 -19 -18 -62 -27 -95 -11 -40 -19 -125 -25 -255 -9 -225 -30 -321 -81
-373 -26 -26 -35 -29 -67 -23 -20 4 -66 9 -102 13 -114 10 -172 -37 -204 -167
-9 -38 -19 -50 -61 -77 -27 -18 -65 -49 -82 -69 -29 -33 -33 -44 -33 -98 0
-36 9 -84 21 -120 25 -68 32 -54 -57 -116 -23 -15 -52 -48 -65 -72 -21 -38
-30 -44 -66 -49 -23 -3 -49 -12 -59 -20 -28 -23 -54 -90 -54 -144 0 -28 -7
-59 -15 -69 -9 -13 -15 -43 -15 -80 0 -34 -4 -76 -10 -95 -5 -18 -12 -79 -16
-135 -7 -98 -8 -102 -44 -144 -50 -57 -60 -126 -33 -225 2 -10 26 -28 51 -40
l47 -22 11 -165 c12 -183 13 -188 57 -280 16 -36 45 -101 62 -145 31 -77 35
-82 104 -128 68 -45 79 -49 164 -58 51 -6 108 -14 127 -20 19 -5 81 -12 138
-16 56 -3 102 -8 102 -10 0 -2 -12 -21 -26 -43 -35 -52 -36 -133 -4 -208 25
-58 60 -93 124 -121 89 -41 146 -49 376 -55 1146 -31 1487 -37 2040 -36 863 2
1340 13 1404 34 105 34 180 97 219 184 16 37 19 62 16 146 l-4 101 60 18 c33
10 95 29 137 42 97 30 138 49 211 97 98 66 123 93 142 154 17 55 27 69 73 106
14 11 22 29 22 47 0 19 13 44 35 71 30 36 35 49 35 93 0 46 8 109 26 217 4 24
21 49 60 86 l54 52 0 82 c0 76 -2 83 -28 108 -15 15 -38 34 -50 42 -33 21 -44
69 -36 149 5 60 4 74 -13 103 -11 18 -23 55 -27 81 -7 58 -23 83 -67 105 -21
11 -36 27 -40 45 -4 15 -24 46 -43 67 -21 23 -36 51 -36 64 0 17 -16 38 -55
71 -64 55 -72 75 -50 121 45 96 16 191 -76 250 -31 19 -39 30 -39 55 0 59 -55
127 -140 171 -36 19 -62 23 -135 25 -49 1 -107 2 -127 2 -32 1 -41 7 -63 40
-30 45 -55 128 -55 186 0 43 -35 162 -70 241 -12 27 -33 73 -46 102 -36 79
-33 116 21 237 66 147 79 252 76 604 -1 167 1 312 4 322 4 10 13 19 21 19 30
0 64 47 64 89 0 28 8 48 26 70 20 24 24 38 20 57 -6 23 0 33 37 68 51 47 87
102 87 132 0 11 21 53 46 93 36 55 47 82 48 116 1 24 3 45 6 47 65 49 116 99
136 134 23 38 24 48 15 76 -17 49 -14 64 26 115 71 94 105 212 69 243 -18 14
-12 32 31 88 40 52 67 141 60 194 -3 21 -15 57 -27 80 -19 37 -20 46 -9 85 18
65 6 147 -30 205 -35 56 -37 64 -16 84 27 27 13 75 -50 174 -13 19 -30 60 -39
91 -10 35 -34 80 -65 120 -27 35 -52 74 -56 87 -9 30 10 52 45 52 38 0 66 -37
74 -99 8 -58 34 -94 87 -121 81 -42 144 -20 222 77 31 38 79 88 107 112 33 27
61 64 81 104 38 78 56 97 146 158 147 100 292 267 309 354 3 19 10 35 15 35
27 0 -12 98 -73 181 -18 26 -60 77 -93 114 -73 82 -78 95 -71 166 14 120 -37
229 -133 286 -58 34 -115 53 -221 72 -66 12 -140 30 -140 34 0 1 -11 33 -25
71 -56 154 -91 204 -207 294 -132 102 -260 145 -362 122 -68 -16 -170 -63
-229 -108 -27 -21 -70 -67 -97 -103 -48 -66 -49 -67 -107 -74 -32 -4 -107 -20
-167 -37 -121 -34 -151 -30 -162 19 -23 105 -35 131 -88 187 l-55 57 2 127 c2
138 -7 176 -51 224 -18 19 -28 45 -33 85 -12 86 -55 163 -109 193 -41 23 -55
25 -172 25 -123 0 -127 1 -155 26 -61 57 -115 64 -194 23 -53 -28 -53 -28
-122 14 -27 17 -29 16 -77 -10 l-49 -27 -33 27 c-18 14 -36 30 -39 35 -3 5
-21 -5 -40 -22 -18 -17 -38 -31 -44 -31 -6 0 -37 14 -68 30 -56 29 -107 39
-107 22 0 -5 -16 -14 -37 -20 -37 -11 -73 -2 -73 18 0 22 -51 8 -82 -22z m882
-98 c6 -11 7 -32 4 -47 -12 -46 -85 -197 -107 -220 -56 -62 -101 7 -77 120 14
70 44 115 95 144 49 28 71 29 85 3z m-244 2 c38 -25 45 -120 14 -182 -25 -49
-26 -102 -2 -122 9 -8 63 -27 120 -41 199 -51 335 -135 388 -239 14 -27 31
-85 40 -131 12 -61 24 -95 51 -134 23 -34 37 -67 40 -97 6 -49 7 -47 -108
-152 -19 -18 -44 -44 -55 -60 -21 -28 -22 -28 -48 -11 -14 10 -38 37 -53 60
-14 23 -42 67 -62 97 -20 30 -36 58 -36 61 0 4 36 26 80 48 78 41 138 87 130
101 -2 4 -55 -13 -117 -38 -97 -39 -124 -46 -203 -49 -78 -4 -94 -2 -122 16
-56 35 -56 98 0 192 43 73 112 119 177 119 56 0 97 -24 181 -107 31 -30 59
-51 63 -45 9 14 -93 152 -132 179 -46 30 -131 47 -177 34 -85 -23 -174 -100
-232 -199 -30 -50 -26 -77 17 -138 16 -23 35 -62 42 -88 11 -42 10 -48 -7 -65
-48 -45 -162 -65 -201 -36 -10 8 -28 15 -39 15 -66 1 -83 66 -40 158 14 31 25
72 25 96 0 92 -99 228 -187 257 -55 18 -152 6 -210 -25 -59 -32 -201 -160
-190 -172 4 -4 39 15 77 42 118 82 141 94 190 94 55 0 125 -33 154 -73 16 -22
21 -44 21 -92 0 -57 -3 -67 -30 -96 -67 -71 -122 -74 -306 -19 -145 43 -169
47 -169 26 0 -9 16 -16 44 -20 27 -4 60 -19 83 -37 55 -44 71 -52 138 -64 l59
-11 -44 -29 c-34 -23 -53 -46 -76 -95 -17 -36 -43 -76 -56 -90 -14 -14 -33
-45 -42 -69 -17 -43 -17 -44 9 -81 20 -30 26 -47 23 -81 -4 -57 -23 -60 -72
-13 -27 27 -41 33 -49 25 -8 -8 0 -20 28 -44 l39 -34 -2 -110 c-3 -124 -2
-126 70 -142 106 -24 148 -55 148 -108 0 -42 -25 -93 -46 -93 -20 0 -64 48
-64 71 0 25 -32 44 -108 65 -82 22 -102 47 -102 123 0 35 6 65 15 77 20 27 19
67 -4 96 -11 13 -22 40 -26 60 -6 32 -3 40 39 87 44 49 46 55 46 110 l0 59
-82 73 c-132 120 -143 193 -44 288 36 35 36 35 36 123 0 102 13 142 60 182 68
57 236 125 400 162 41 9 81 21 88 26 23 19 13 65 -27 118 -43 58 -57 104 -41
144 19 51 96 57 140 11 35 -37 37 -97 6 -185 -14 -41 -22 -77 -18 -81 4 -4 33
-4 65 -2 l59 6 -7 51 c-4 28 -14 60 -21 71 -8 11 -14 42 -14 69 0 57 27 96 67
96 33 0 50 -35 58 -123 6 -68 4 -82 -14 -113 -12 -20 -19 -40 -16 -45 4 -5 26
-9 51 -9 52 0 64 17 45 64 -47 114 -49 151 -11 214 20 32 58 43 86 24z m-552
-50 c46 -41 61 -148 28 -211 -22 -44 -39 -50 -52 -16 -6 15 -26 46 -45 69 -61
74 -69 122 -29 162 28 29 63 27 98 -4z m1123 -27 c72 -47 32 -134 -90 -196
-32 -17 -60 -36 -64 -45 -9 -25 17 -44 60 -44 36 0 47 -6 90 -51 29 -30 54
-48 63 -45 28 11 15 40 -53 120 -18 22 -33 45 -33 52 0 16 39 44 62 44 29 0
58 -37 58 -72 0 -20 14 -55 35 -88 25 -38 35 -66 35 -94 0 -51 -32 -116 -70
-144 -39 -29 -32 -55 12 -38 27 10 32 9 54 -19 14 -16 45 -54 70 -83 72 -83
79 -152 28 -254 -27 -54 -25 -65 19 -93 39 -25 43 -42 27 -126 -12 -63 -12
-68 10 -108 23 -40 23 -42 7 -76 -9 -20 -17 -58 -17 -86 l0 -50 -35 7 c-41 7
-44 -2 -14 -40 18 -23 20 -32 10 -52 -17 -37 -47 -31 -71 15 -38 75 -60 68
-30 -8 33 -84 23 -171 -19 -171 -28 0 -91 75 -91 108 0 15 -14 56 -30 90 -36
76 -39 133 -10 162 22 22 36 19 58 -12 7 -10 17 -18 23 -18 17 0 9 28 -17 60
-24 28 -26 37 -22 95 4 47 13 76 34 110 16 25 39 64 51 86 23 43 39 134 29
166 -4 11 -40 71 -82 134 -58 87 -74 120 -71 139 3 14 11 60 18 103 l13 77
-49 50 c-29 30 -58 50 -71 50 -34 0 -150 38 -173 58 -12 9 -24 34 -28 54 -5
33 -2 41 30 73 31 31 41 35 85 35 56 0 63 5 51 37 -11 29 -37 35 -89 20 -38
-11 -49 -20 -77 -70 -22 -37 -40 -57 -53 -57 -23 0 -34 30 -25 70 8 36 75 114
112 129 75 31 189 29 240 -4z m-1341 -14 c58 -42 80 -70 109 -135 29 -67 29
-100 0 -104 -15 -2 -33 15 -68 63 -52 70 -89 101 -107 90 -7 -4 6 -25 33 -54
49 -52 65 -87 48 -104 -7 -7 -27 7 -68 46 -64 63 -96 72 -140 37 -14 -11 -41
-20 -59 -20 -45 0 -51 -16 -14 -35 35 -18 37 -31 10 -60 -28 -30 -12 -49 34
-41 45 9 66 38 66 93 0 56 22 57 50 3 32 -64 27 -84 -41 -158 -34 -37 -75 -87
-93 -112 -30 -43 -31 -49 -31 -145 0 -96 -2 -102 -35 -160 -31 -53 -35 -68
-35 -131 0 -64 5 -80 49 -174 l50 -103 -20 -36 c-15 -27 -26 -36 -46 -36 -17
0 -34 -10 -49 -29 -40 -51 -98 -86 -142 -86 -43 0 -77 22 -77 49 0 9 14 29 30
44 42 40 41 89 -2 142 -31 37 -33 44 -33 117 1 90 15 115 59 104 33 -8 52 -46
59 -121 5 -48 11 -64 32 -83 20 -17 31 -20 44 -12 59 31 15 172 -75 247 -26
21 -53 52 -61 70 -17 42 -17 114 2 172 8 25 17 59 20 74 3 16 17 40 30 53 21
20 28 22 48 13 30 -14 47 -48 47 -94 0 -49 14 -43 40 17 25 58 23 104 -7 145
-57 80 -58 116 -7 161 29 26 34 35 24 47 -9 10 -18 11 -37 4 -13 -5 -29 -7
-34 -3 -5 3 -9 36 -9 73 0 55 4 71 21 90 37 39 82 53 133 40 50 -12 74 -4 118
43 35 38 82 38 134 -1z m-1303 -563 c21 -11 47 -66 47 -100 0 -14 13 -35 30
-50 26 -23 30 -33 30 -80 0 -29 7 -66 15 -82 17 -33 19 -62 5 -71 -5 -3 -10
-26 -10 -50 0 -42 -3 -46 -39 -65 -55 -28 -58 -37 -22 -74 51 -52 39 -86 -29
-86 -35 0 -47 -16 -22 -29 10 -5 30 -31 44 -58 44 -80 48 -151 12 -187 -22
-23 -36 -20 -91 18 -66 45 -93 53 -93 28 0 -12 25 -41 60 -72 73 -63 90 -93
90 -157 0 -57 -38 -146 -70 -163 -47 -25 -66 15 -33 71 16 27 16 31 0 63 -17
37 -24 40 -110 51 -57 8 -95 38 -103 82 -5 26 -3 34 11 39 10 4 26 2 36 -4 45
-28 79 -7 79 49 0 45 -32 75 -89 84 -60 9 -86 20 -86 35 0 9 15 17 41 21 94
17 163 65 189 133 14 36 15 55 7 109 -18 111 -66 191 -137 226 -58 28 -74 14
-22 -19 72 -45 107 -110 107 -196 0 -85 -34 -134 -120 -173 -50 -23 -85 -27
-95 -11 -4 6 19 38 49 71 46 49 56 67 56 95 0 20 -5 44 -10 54 -16 31 -93 70
-174 89 -117 28 -156 63 -159 144 -2 56 17 92 59 112 38 18 74 12 100 -16 23
-25 40 -24 47 3 5 17 -3 31 -34 59 -66 60 -30 82 47 29 50 -35 45 -37 159 41
39 26 81 49 95 52 32 6 110 -2 133 -15z m3991 -49 c62 -23 116 -78 116 -117 0
-13 -14 -43 -30 -67 -17 -24 -27 -46 -23 -48 17 -11 79 30 93 60 8 18 21 33
28 33 19 0 15 -61 -5 -76 -17 -12 -17 -13 0 -20 12 -4 26 1 42 16 32 30 45 18
45 -39 0 -74 -10 -109 -42 -143 -25 -27 -33 -30 -66 -24 -138 24 -152 18 -152
-64 0 -50 -14 -100 -27 -100 -5 0 -16 15 -27 33 l-19 32 -11 -45 c-12 -48 -10
-47 -136 -85 -102 -31 -140 -79 -140 -177 0 -27 -6 -40 -19 -48 -28 -14 -63
-12 -89 6 -44 31 -23 154 37 219 40 42 93 148 89 176 -2 16 -10 24 -23 24 -15
0 -21 -8 -23 -32 -4 -40 -29 -44 -59 -10 -28 31 -33 50 -17 72 20 28 17 60 -9
91 -37 42 -47 25 -40 -70 7 -96 -5 -141 -49 -192 -33 -38 -79 -54 -153 -54
-64 0 -100 -18 -101 -50 -1 -41 -14 -70 -32 -70 -54 0 -129 91 -106 128 6 9
20 18 30 20 51 8 62 14 82 51 24 42 24 42 119 61 75 15 117 39 143 82 21 34
27 93 11 102 -10 7 -21 -16 -21 -43 0 -23 -31 -39 -100 -51 -33 -6 -68 -21
-90 -38 -136 -109 -160 -120 -181 -81 -28 53 29 138 151 229 106 78 129 86
199 72 32 -7 71 -12 87 -12 16 0 39 -7 51 -15 27 -19 40 -5 52 56 5 24 13 56
19 71 14 35 86 105 126 122 17 7 42 18 56 24 43 18 154 14 214 -9z m-3649
-118 c36 -18 64 -38 62 -44 -4 -14 -62 -26 -130 -26 -59 -1 -97 30 -97 80 l0
32 50 -5 c27 -3 79 -20 115 -37z m214 -20 c54 -28 133 -151 97 -151 -7 0 -19
6 -25 14 -6 7 -32 21 -57 31 -38 14 -49 25 -67 64 -12 25 -23 49 -25 54 -7 14
39 7 77 -12z m-126 -110 c103 -36 242 -149 252 -205 7 -42 -7 -90 -29 -94 -26
-5 -44 15 -80 92 -40 87 -93 146 -130 146 -14 0 -26 -3 -26 -6 0 -3 23 -31 50
-62 60 -67 97 -139 106 -204 6 -43 4 -49 -25 -78 -26 -27 -37 -31 -71 -28 -22
1 -40 0 -40 -5 -3 -31 16 -81 38 -98 79 -62 82 -173 7 -207 -55 -25 -64 -19
-67 55 l-3 68 -53 7 c-72 11 -106 30 -142 82 -16 25 -39 47 -49 51 -36 11 -43
30 -26 70 21 52 19 101 -6 142 -15 24 -18 38 -11 45 15 15 29 2 56 -50 34 -67
57 -85 115 -88 27 -1 58 -7 69 -13 22 -12 91 -15 116 -5 26 10 19 50 -13 77
-24 20 -44 25 -120 30 -125 9 -180 41 -182 108 -2 54 15 145 29 162 36 40 130
44 235 8z m1181 3 c3 -9 6 -47 6 -84 0 -38 5 -80 11 -93 12 -27 47 -47 83 -47
13 0 49 -12 79 -26 88 -40 119 -41 183 -9 58 30 55 30 124 -10 49 -29 104 -15
183 47 35 28 37 33 37 88 0 69 18 83 56 45 30 -30 32 -100 5 -162 -22 -48 -87
-99 -138 -109 -45 -9 -132 10 -194 40 -50 26 -64 22 -30 -8 28 -26 115 -56
181 -63 71 -7 133 20 181 79 49 62 99 69 99 13 0 -34 -55 -108 -97 -132 -105
-59 -293 -28 -413 68 -22 18 -43 29 -46 26 -19 -18 73 -103 143 -132 59 -25
213 -38 279 -25 81 17 110 34 140 83 36 58 64 87 84 87 39 0 77 -81 59 -126
-11 -32 -33 -26 -37 9 -5 43 -36 34 -72 -22 -72 -113 -198 -165 -343 -141
-131 21 -216 73 -263 160 -17 31 -31 47 -40 43 -8 -3 -14 -11 -14 -18 0 -18
-90 -116 -137 -148 -21 -14 -69 -37 -108 -51 -38 -13 -89 -31 -112 -40 -47
-17 -89 -9 -100 20 -9 24 31 54 72 54 18 0 38 7 45 15 11 13 7 15 -23 15 -41
0 -140 34 -156 54 -20 24 9 37 55 24 21 -7 86 -12 144 -12 99 0 110 2 189 37
87 38 121 61 121 83 0 25 -18 23 -55 -6 -51 -41 -132 -62 -245 -63 -113 -2
-141 10 -195 80 -39 51 -43 86 -10 91 13 2 28 -9 44 -33 40 -59 74 -81 144
-95 50 -9 77 -9 125 0 153 31 165 103 21 131 -75 15 -99 40 -121 132 -9 40
-17 81 -18 91 -1 42 60 75 74 40z m630 -36 c31 -44 13 -142 -34 -182 -40 -34
-84 -42 -115 -22 -14 9 -25 21 -25 26 0 5 21 20 48 33 l47 23 3 60 c1 32 5 65
7 72 7 20 53 14 69 -10z m-2875 -83 c32 -30 61 -55 65 -55 22 0 139 -66 156
-87 37 -47 26 -75 -43 -114 -93 -52 -113 -59 -178 -59 -48 0 -68 -4 -72 -14
-9 -23 2 -26 95 -26 70 0 97 -4 129 -20 42 -22 76 -66 86 -113 3 -17 15 -32
29 -38 29 -10 30 -19 4 -70 -24 -46 -43 -178 -34 -233 3 -21 17 -62 30 -90 31
-66 30 -74 -8 -126 -32 -43 -33 -47 -33 -144 l0 -99 -45 -15 c-69 -23 -96 -47
-121 -107 -24 -59 -34 -67 -42 -35 -8 33 -25 23 -52 -30 -26 -52 -55 -66 -121
-58 -25 3 -29 8 -32 37 -4 38 19 107 49 144 15 21 31 26 87 32 78 8 78 7 115
57 23 31 26 41 17 58 -8 16 -6 26 11 49 13 18 24 50 27 80 l4 50 -86 90 c-47
49 -86 96 -86 103 0 8 -14 33 -31 56 -17 24 -29 45 -27 48 3 2 25 -5 49 -16
55 -24 83 -25 134 -1 69 31 128 120 94 142 -10 6 -20 2 -34 -14 -38 -43 -68
-57 -122 -57 -58 0 -78 15 -39 30 81 30 -29 59 -162 41 -59 -7 -85 -17 -135
-50 -130 -84 -175 -76 -73 14 l66 57 0 62 c0 41 6 69 16 85 23 32 90 61 146
61 26 0 49 4 53 10 10 17 -19 50 -63 71 -23 12 -45 26 -50 33 -14 24 -57 46
-88 46 -46 0 -110 -50 -124 -97 -18 -60 -10 -95 25 -112 40 -19 45 -28 45 -82
0 -57 -26 -94 -81 -116 -49 -19 -86 -63 -95 -111 -8 -49 -28 -78 -65 -97 -57
-30 -129 11 -129 74 1 67 93 193 150 204 22 5 31 13 35 34 10 46 37 101 51
107 10 4 14 27 14 86 0 80 0 80 41 125 43 47 148 105 190 105 44 1 110 43 133
85 32 61 36 65 52 65 9 0 41 -25 73 -55z m2135 -79 c25 -56 74 -96 140 -112
27 -7 28 -8 11 -20 -26 -19 -110 -17 -151 2 -43 20 -114 100 -114 127 0 30 29
57 62 57 25 0 31 -7 52 -54z m2945 -16 c86 -42 178 -74 242 -84 79 -13 138
-101 146 -216 8 -112 35 -170 110 -236 96 -84 122 -155 87 -230 -33 -70 -71
-65 -105 13 -23 54 -52 72 -136 86 -74 12 -83 18 -83 60 0 19 -11 38 -31 57
-45 40 -27 58 19 20 45 -37 78 -41 67 -7 -19 59 -17 83 10 115 27 32 27 33 17
119 -9 79 -13 90 -41 115 -33 30 -51 34 -81 18 -25 -13 -212 -280 -207 -294 3
-7 32 -27 65 -44 87 -47 105 -73 97 -141 -8 -65 -2 -71 75 -71 57 0 134 -30
175 -67 42 -38 75 -86 75 -109 0 -41 -29 -28 -106 46 -52 50 -79 70 -98 70
-39 0 -32 -23 25 -82 62 -63 86 -105 70 -121 -16 -16 -38 0 -79 54 -51 68 -72
92 -78 86 -3 -3 4 -24 16 -46 27 -54 53 -156 45 -181 -7 -22 -39 -27 -55 -7
-74 90 -170 232 -170 251 0 32 19 14 74 -67 92 -139 114 -143 70 -13 -25 76
-36 94 -98 161 l-71 75 -57 0 c-51 0 -59 -3 -77 -29 -34 -48 -80 -151 -92
-210 -14 -65 -33 -91 -66 -91 -57 0 -81 -75 -43 -137 28 -47 72 -66 168 -71
45 -3 85 -9 89 -15 4 -6 7 -32 8 -57 1 -30 12 -64 30 -97 26 -45 27 -53 15
-69 -18 -21 -71 -44 -103 -44 -40 0 -74 36 -91 93 -18 62 -38 82 -124 127 -88
46 -93 59 -93 233 0 78 -1 160 -2 182 l-2 40 67 0 67 0 87 79 c76 68 84 78 58
73 -16 -3 -67 -13 -113 -22 -99 -20 -136 -15 -127 18 18 59 18 92 1 148 -21
70 -14 106 25 126 40 20 155 16 231 -9 101 -32 128 -12 63 49 -73 68 -116 80
-206 58 -46 -12 -72 1 -90 42 -40 93 -29 145 32 158 18 4 41 21 58 43 83 109
110 115 241 52z m-3775 -191 c0 -35 -6 -78 -14 -95 -12 -28 -11 -36 8 -76 36
-72 25 -158 -18 -158 -15 0 -20 7 -20 28 0 35 -56 123 -106 166 -46 40 -42 61
16 69 59 8 88 30 95 74 10 56 14 65 28 60 8 -2 12 -25 11 -68z m3347 -10 c13
-24 6 -83 -12 -105 -6 -8 -20 -14 -31 -14 -10 0 -43 -23 -73 -51 -78 -74 -104
-139 -69 -173 20 -21 33 -20 40 2 18 57 35 81 75 100 65 32 84 4 59 -87 -5
-20 -12 -58 -15 -84 -11 -85 -81 -139 -215 -166 -64 -13 -120 -44 -120 -66 0
-8 20 -25 45 -37 48 -23 56 -42 28 -64 -45 -34 -139 -1 -163 56 -17 42 -6 135
24 203 30 68 54 79 97 43 26 -22 40 -26 98 -26 54 0 74 4 95 21 37 29 19 49
-46 49 -39 0 -54 5 -74 25 -34 34 -75 130 -77 178 -2 44 -5 42 98 83 49 19 87
44 125 81 60 57 92 66 111 32z m-539 -38 c-3 -47 -32 -129 -63 -180 l-20 -34
-64 6 c-96 9 -145 -15 -145 -70 0 -54 -66 -41 -90 17 -23 56 5 113 76 156 11
6 18 23 19 40 l0 29 87 7 c87 6 136 25 168 63 21 26 35 11 32 -34z m-4369 4
c4 -8 2 -17 -4 -21 -16 -9 -75 5 -89 21 -11 13 -5 15 38 15 35 0 52 -4 55 -15z
m3488 -95 c3 -31 12 -66 19 -79 14 -28 8 -83 -14 -117 -11 -15 -36 -29 -76
-40 -62 -17 -87 -38 -122 -103 -9 -17 -22 -31 -27 -31 -18 0 -38 43 -45 92 -7
47 -7 47 31 67 59 30 113 85 113 114 0 15 10 33 24 45 14 10 28 32 32 48 11
46 24 65 42 62 13 -2 19 -18 23 -58z m2127 2 c5 -30 -23 -77 -63 -108 -41 -31
-115 -44 -132 -23 -9 11 6 32 68 97 76 80 81 83 102 69 12 -8 23 -24 25 -35z
m-3724 -10 c9 -11 20 -49 25 -91 14 -107 28 -108 33 -1 3 51 5 55 28 55 23 0
25 -3 24 -50 -1 -67 -19 -194 -32 -226 -17 -44 -59 -69 -114 -69 -44 0 -49 3
-59 28 -5 15 -37 52 -71 82 -58 53 -61 58 -66 111 -6 77 7 99 61 99 49 0 91
20 119 55 23 30 30 31 52 7z m2071 -64 c-4 -24 -10 -87 -14 -140 -6 -94 -7
-98 -42 -135 -38 -40 -64 -81 -56 -90 3 -2 20 12 38 31 18 20 38 36 45 36 40
0 21 -139 -29 -215 -18 -27 -38 -63 -44 -80 -17 -43 -25 -121 -18 -155 11 -50
25 -33 25 29 0 53 4 65 50 135 40 61 55 76 74 76 39 0 50 -31 43 -129 -7 -99
-27 -157 -68 -189 -31 -25 -49 -75 -49 -139 0 -59 16 -62 42 -7 22 49 87 124
106 124 31 0 57 -69 32 -85 -5 -3 -10 -19 -10 -34 0 -16 -8 -39 -19 -52 -10
-13 -21 -34 -25 -47 -4 -12 -19 -35 -32 -52 -19 -22 -23 -34 -16 -47 5 -10 12
-35 16 -55 4 -21 10 -38 14 -38 4 0 21 25 37 56 17 31 43 67 59 81 25 21 31
22 44 10 23 -24 6 -83 -56 -191 -66 -114 -81 -129 -111 -102 -17 16 -21 31
-21 86 0 70 -1 72 -81 172 -17 20 -25 52 -34 135 -15 121 -32 180 -76 255 -37
63 -40 127 -10 208 13 34 21 78 21 117 0 52 5 71 31 113 20 33 34 71 40 117
18 125 60 243 87 243 12 0 13 -8 7 -42z m-2860 -28 c17 -27 32 -40 48 -40 33
0 82 -34 96 -67 6 -16 26 -38 43 -48 61 -35 108 -86 108 -115 0 -26 -63 -120
-81 -120 -5 0 -18 18 -29 39 -24 49 -47 65 -127 92 -35 11 -77 32 -93 46 -54
45 -63 148 -19 220 11 18 22 33 25 33 2 0 15 -18 29 -40z m1695 8 c16 -12 56
-27 87 -33 65 -13 78 -34 49 -78 -19 -28 -45 -42 -104 -57 -36 -9 -41 -14 -32
-26 26 -30 64 -16 127 46 42 41 66 58 77 54 22 -9 20 -30 -9 -80 -34 -57 -73
-84 -124 -84 -27 0 -52 -8 -71 -22 -29 -21 -30 -21 -75 -3 -32 12 -58 32 -84
65 -79 100 -79 147 4 188 28 14 61 31 75 38 36 18 47 17 80 -8z m378 -93 c7
-22 16 -92 19 -156 l6 -116 -42 -46 c-55 -59 -116 -89 -173 -85 -51 4 -66 32
-25 47 43 16 42 31 -2 31 -21 0 -46 3 -55 6 -13 5 -16 -1 -16 -29 0 -34 -3
-37 -37 -43 -101 -20 -153 0 -133 51 14 37 9 40 -31 16 -20 -13 -52 -21 -79
-22 -48 0 -48 0 29 -31 40 -15 6 -28 -75 -28 -84 0 -125 22 -161 85 -27 47
-29 102 -9 225 18 105 23 120 46 120 18 0 44 -27 133 -140 63 -80 136 -115
236 -115 111 0 137 16 223 139 90 128 98 137 117 134 9 -2 22 -21 29 -43z
m1233 -17 c62 -48 68 -62 41 -91 -46 -49 -120 -80 -201 -85 -113 -7 -170 -47
-136 -98 21 -32 19 -34 -16 -34 -25 0 -32 6 -44 33 -7 18 -23 41 -34 51 -12
11 -21 27 -21 36 0 9 37 52 83 96 69 67 92 82 147 100 96 32 130 30 181 -8z
m-2876 -51 c14 -24 32 -66 40 -93 15 -50 20 -136 9 -147 -14 -13 -46 16 -64
58 -12 27 -30 50 -49 59 -49 26 -53 94 -8 144 29 32 43 28 72 -21z m-1475 -7
c0 -11 -28 -55 -62 -98 -35 -44 -74 -94 -88 -111 -19 -24 -36 -34 -70 -39 -39
-7 -50 -14 -85 -61 l-40 -54 -3 31 c-2 22 7 46 32 83 20 29 34 55 32 57 -10 9
-77 -30 -97 -57 -12 -17 -27 -31 -32 -31 -16 0 4 54 36 96 43 56 81 81 145 95
34 7 79 29 125 60 78 53 107 61 107 29z m556 -80 c33 -30 52 -40 78 -40 40 0
50 -11 65 -67 11 -39 43 -76 99 -113 18 -11 27 -32 37 -85 21 -109 3 -160 -67
-196 -21 -11 -38 -23 -38 -27 0 -4 18 -14 39 -23 50 -21 73 -58 79 -123 8 -99
-49 -166 -140 -166 -57 0 -78 13 -60 37 87 123 82 168 -30 265 -94 82 -134
168 -103 227 23 45 46 39 119 -26 50 -46 64 -65 67 -92 5 -45 27 -52 35 -12 4
17 11 34 15 37 19 12 9 63 -15 80 -14 8 -39 38 -56 65 -18 27 -54 67 -80 89
-34 28 -60 63 -84 113 -20 40 -36 78 -36 85 0 24 33 12 76 -28z m3014 4 c14
-10 42 -33 63 -53 33 -32 37 -40 37 -87 0 -28 -7 -69 -16 -90 -49 -120 -66
-144 -99 -144 -25 0 -55 -30 -80 -79 -25 -50 -63 -81 -99 -81 -54 0 -74 34
-30 50 23 9 26 15 21 45 -3 19 -24 61 -46 94 -65 95 -51 183 15 96 34 -45 45
-44 28 3 -26 72 -8 133 19 62 17 -44 26 -37 29 22 6 108 54 43 65 -89 7 -81
18 -94 28 -34 8 47 -2 126 -21 163 -20 39 -18 41 31 35 54 -8 58 4 10 35 -32
22 -44 46 -28 61 12 12 48 7 73 -9z m-2550 -54 c44 -46 64 -60 86 -60 22 0 33
-8 46 -30 19 -34 53 -50 104 -50 51 0 70 -14 89 -65 26 -68 16 -122 -31 -163
-61 -52 -87 -37 -114 66 -14 55 -42 72 -132 82 -78 9 -108 30 -108 75 0 12 -7
28 -15 35 -13 11 -15 5 -15 -41 0 -42 7 -66 30 -106 34 -59 51 -70 170 -109
132 -44 190 -117 156 -198 -20 -49 -68 -79 -116 -74 -46 4 -50 -6 -20 -44 33
-43 41 -76 29 -121 -16 -62 -57 -97 -113 -97 -25 0 -57 5 -71 12 -14 6 -28 8
-33 4 -7 -7 4 -18 79 -75 61 -47 87 -128 59 -182 -15 -27 -83 -59 -127 -59
-71 0 -71 -12 1 -83 36 -36 66 -73 66 -82 0 -55 -60 -120 -132 -146 -21 -7
-38 -17 -38 -22 0 -6 18 -29 40 -53 48 -52 50 -79 15 -141 -26 -43 -56 -64
-107 -77 -36 -8 -35 -23 3 -44 84 -46 104 -78 87 -138 -16 -60 -93 -126 -112
-96 -2 4 0 28 6 53 6 26 8 58 5 71 -8 30 -68 72 -124 87 -88 24 -132 142 -73
196 29 26 66 12 90 -35 27 -53 51 -65 81 -42 17 14 22 30 23 65 1 45 -1 49
-66 109 -73 69 -89 107 -66 155 18 38 56 41 107 8 48 -32 81 -30 99 7 22 46 5
75 -77 140 -96 75 -106 89 -90 120 15 30 49 67 72 79 14 8 26 1 62 -35 47 -49
82 -59 105 -30 21 24 2 56 -67 113 -35 29 -72 70 -83 91 -19 36 -19 43 -6 68
16 31 83 82 107 82 7 0 34 -14 58 -30 42 -28 45 -29 63 -14 35 32 18 58 -70
104 -62 33 -91 89 -92 177 0 52 3 64 20 73 17 9 27 4 63 -30 46 -42 101 -70
138 -70 12 0 23 -8 26 -20 6 -23 16 -25 30 -7 36 46 13 77 -74 102 -70 20
-130 59 -160 104 -18 27 -23 48 -23 100 0 53 -5 74 -25 106 -31 51 -31 57 4
97 18 21 30 49 34 78 6 44 26 70 55 70 8 0 40 -27 72 -60z m-903 -53 c43 -46
98 -128 134 -198 l21 -43 -21 -18 c-12 -9 -50 -23 -83 -29 -46 -9 -68 -20 -94
-46 -18 -18 -38 -33 -43 -33 -6 0 -25 -13 -43 -28 -37 -32 -87 -52 -130 -52
-27 0 -29 2 -23 28 5 23 1 31 -18 41 -39 21 -76 101 -47 101 6 0 10 -4 10 -9
0 -15 50 -62 60 -56 17 10 11 35 -15 69 -29 38 -33 84 -9 93 37 14 84 -50 87
-119 2 -51 22 -53 22 -3 0 38 17 52 24 20 2 -11 8 -31 13 -44 l9 -24 22 21
c12 11 52 34 88 50 71 32 99 61 99 102 0 31 -10 44 -72 94 -30 23 -48 45 -48
58 0 12 -7 29 -16 39 -9 10 -14 25 -10 34 8 22 31 8 83 -48z m1813 53 c24 -13
40 -62 40 -125 0 -35 5 -57 15 -65 13 -10 15 -9 15 12 0 29 26 68 45 68 21 0
38 -38 31 -71 -3 -16 -4 -29 -1 -29 2 0 20 14 39 31 39 34 56 31 56 -9 0 -46
-36 -91 -90 -114 -49 -20 -70 -50 -70 -99 0 -21 -46 -59 -72 -59 -26 0 -66 42
-73 77 -21 100 -30 118 -93 187 -71 78 -123 161 -115 182 8 21 15 18 89 -41
38 -30 72 -55 75 -55 3 0 15 22 27 49 12 27 29 54 39 60 22 13 21 13 43 1z
m3360 -26 c0 -4 -15 -32 -34 -63 -67 -112 -135 -252 -130 -266 11 -29 53 -17
76 20 24 41 51 43 56 5 6 -48 10 -52 35 -35 29 19 38 11 30 -27 -5 -25 -3 -29
13 -26 10 2 31 22 47 46 22 32 35 42 51 40 37 -5 32 -43 -11 -74 -48 -35 -63
-53 -63 -76 0 -37 30 -31 80 16 51 48 70 55 88 33 9 -10 2 -23 -31 -54 -23
-22 -52 -46 -65 -52 -15 -8 -22 -19 -20 -34 5 -35 -28 -33 -63 5 -17 18 -45
53 -63 78 -30 42 -35 45 -86 50 -69 6 -132 38 -144 73 -8 23 -4 32 32 71 22
24 57 77 78 118 37 74 98 158 115 158 5 0 9 -3 9 -6z m-5330 -46 c-1 -19 -98
-101 -110 -93 -18 11 -11 23 41 64 54 43 69 49 69 29z m4334 -6 c3 -10 13 -44
21 -76 l16 -59 -26 -27 c-15 -15 -45 -35 -68 -45 -93 -39 -89 -34 -82 -86 6
-43 5 -47 -17 -53 -70 -18 -98 11 -98 104 0 81 33 155 90 200 72 57 153 78
164 42z m550 -55 c7 -37 6 -60 -8 -102 -32 -104 -76 -143 -234 -213 -62 -28
-79 -52 -62 -92 7 -16 18 -31 26 -34 25 -10 15 -34 -17 -41 -22 -5 -36 -2 -49
10 -25 22 -54 109 -46 139 3 12 44 57 91 100 112 102 140 138 126 164 -9 17
-2 26 57 71 83 64 104 64 116 -2z m-3418 4 c7 -12 26 -35 43 -49 23 -19 34
-40 40 -72 9 -48 18 -40 23 20 2 22 8 35 17 35 23 0 34 -62 28 -171 -4 -88 -8
-107 -31 -140 -20 -30 -26 -51 -26 -93 0 -49 -4 -59 -33 -91 -19 -19 -40 -55
-47 -79 -9 -26 -21 -46 -32 -49 -22 -5 -22 0 2 -46 17 -35 18 -41 5 -67 -8
-15 -19 -30 -24 -33 -5 -3 -19 -25 -31 -48 -18 -35 -21 -51 -15 -95 6 -49 4
-58 -24 -102 -29 -45 -31 -54 -31 -142 0 -76 -4 -100 -20 -127 -11 -18 -20
-42 -20 -55 -1 -12 -7 -39 -14 -59 -13 -36 -12 -38 11 -53 18 -13 23 -23 21
-47 -2 -17 -11 -36 -20 -42 -13 -8 -22 -5 -42 17 -30 32 -31 40 -11 57 22 19
18 28 -16 35 -18 4 -35 16 -41 31 -10 21 -8 28 14 52 47 51 44 83 -18 158 -19
23 -34 51 -34 63 0 31 38 51 98 51 69 0 75 16 28 77 -92 123 -112 177 -77 212
23 23 70 28 75 9 17 -65 22 -73 46 -73 34 0 37 27 6 59 -25 24 -26 30 -26 144
0 107 2 122 23 153 12 19 30 35 40 37 14 3 17 -5 17 -52 0 -44 5 -60 25 -83
l24 -28 1 83 c0 71 -4 92 -30 149 -39 86 -37 107 12 111 36 3 38 1 63 -48 14
-28 30 -48 35 -45 6 3 10 30 10 60 0 48 -4 58 -35 91 -35 37 -40 53 -35 131 1
29 -5 54 -19 77 -26 41 -27 82 -3 95 23 14 35 9 48 -18z m-1414 -16 c2 -15
-108 -88 -121 -81 -23 15 -9 37 42 66 51 30 77 35 79 15z m-212 -2 c0 -21 -63
-114 -71 -106 -9 9 7 80 23 101 11 13 48 17 48 5z m312 -63 c24 -33 15 -65
-13 -49 -26 13 -52 56 -44 69 10 17 36 8 57 -20z m5223 14 c30 -20 58 -61 49
-75 -4 -7 -18 1 -38 19 -17 16 -41 35 -54 41 -24 13 -21 31 4 31 8 0 25 -7 39
-16z m-5310 -64 c14 -15 16 -23 7 -32 -16 -16 -62 -1 -62 21 0 36 27 42 55 11z
m3255 -72 c24 -53 26 -88 4 -88 -12 0 -15 -6 -10 -22 17 -55 18 -105 2 -135
-30 -59 -154 -122 -211 -107 -30 7 -30 11 -9 54 19 38 14 107 -11 157 -16 32
-14 53 6 53 5 0 28 -17 50 -37 l42 -38 -7 58 c-7 52 -6 57 12 57 10 0 24 -11
30 -25 6 -14 18 -25 27 -25 12 0 15 13 15 63 0 35 3 67 7 70 16 17 35 4 53
-35z m-1130 -8 c11 -11 20 -27 20 -35 0 -21 17 -19 30 5 23 43 50 18 50 -46 0
-41 6 -42 41 -8 36 35 64 27 56 -16 -7 -35 8 -50 17 -17 9 34 44 70 61 63 18
-7 12 -26 -29 -86 -28 -41 -30 -51 -28 -117 3 -72 3 -72 -29 -88 -40 -21 -69
-14 -118 30 -27 24 -42 50 -51 82 -17 62 -36 93 -59 93 -26 0 -42 23 -48 67
-4 29 0 44 17 66 26 32 43 34 70 7z m2224 0 c29 -11 49 -44 42 -68 -10 -31
-82 -98 -141 -131 -51 -29 -57 -35 -52 -59 7 -36 -27 -102 -53 -102 -25 0 -70
76 -70 117 0 32 21 58 83 106 30 23 36 32 31 53 -8 31 9 52 61 75 47 21 65 22
99 9z m-4124 -64 c0 -14 -29 -26 -68 -26 -32 0 -72 -22 -139 -78 -32 -27 -70
-56 -85 -66 -26 -17 -28 -17 -28 -1 0 19 85 107 149 153 38 28 52 32 108 32
47 0 63 -4 63 -14z m2240 -57 c0 -36 8 -37 35 -2 26 32 45 24 45 -19 l0 -31
52 49 c41 38 53 45 56 32 2 -10 -8 -37 -22 -61 -14 -24 -26 -58 -26 -75 0 -27
6 -35 37 -49 50 -24 51 -39 6 -61 -21 -10 -48 -25 -60 -32 -19 -12 -28 -12
-60 -1 -61 22 -111 60 -122 93 -22 61 -6 169 27 187 23 13 32 5 32 -30z m397
-3 l33 -36 11 27 c5 16 12 34 14 41 6 16 30 16 43 -1 19 -23 42 -101 42 -145
0 -57 -14 -80 -58 -99 -84 -36 -167 -37 -212 -3 l-24 18 42 47 c24 27 42 58
42 71 0 13 -16 41 -35 63 -49 54 -46 65 17 59 44 -5 57 -11 85 -42z m-1073
-71 c9 -13 16 -41 16 -61 0 -30 -9 -46 -43 -83 -23 -25 -50 -57 -59 -71 l-17
-25 -31 33 c-43 46 -39 74 22 160 58 79 84 90 112 47z m934 -18 c4 -21 -27
-35 -38 -17 -12 19 0 42 19 38 9 -2 17 -11 19 -21z m2041 -1 c17 -20 1 -75
-36 -122 -70 -93 2 -229 83 -153 20 19 23 19 38 4 12 -12 16 -35 16 -91 0 -83
17 -136 50 -154 15 -8 19 -15 12 -22 -16 -16 -42 -1 -107 57 l-60 55 37 34
c51 47 43 67 -21 59 -60 -7 -115 17 -142 61 -25 42 -25 146 0 202 32 69 100
106 130 70z m-1138 -43 c6 -15 17 -42 25 -59 9 -18 14 -47 12 -66 -2 -27 -7
-34 -30 -36 -31 -4 -45 16 -65 92 -12 42 -11 52 2 72 21 32 43 30 56 -3z
m-3057 -40 c25 -27 46 -51 46 -55 0 -9 -2 -9 -38 -13 -69 -7 -44 -66 58 -143
57 -43 69 -57 72 -84 6 -60 -3 -94 -35 -131 -29 -34 -38 -38 -94 -44 -35 -3
-63 -10 -63 -15 0 -4 25 -24 56 -44 90 -58 109 -132 49 -196 -45 -50 -77 -50
-187 -3 -14 5 -18 2 -18 -13 0 -12 27 -44 70 -82 75 -66 83 -86 56 -138 -19
-37 -44 -57 -88 -71 -48 -16 -57 -44 -28 -82 13 -18 19 -37 15 -49 -6 -20 -70
-80 -85 -80 -21 0 -21 24 0 52 14 18 20 38 16 51 -6 26 -54 75 -112 116 -26
18 -43 39 -47 56 -6 35 9 89 29 106 14 11 20 9 45 -19 16 -18 29 -42 29 -55 0
-29 26 -67 46 -67 22 0 74 55 74 78 0 11 -11 33 -24 49 -13 15 -28 44 -35 64
-6 20 -25 49 -42 65 -43 41 -69 96 -69 147 0 90 57 88 128 -6 49 -64 69 -78
100 -70 17 4 22 13 22 37 0 24 -13 47 -51 91 -28 33 -65 88 -81 123 -26 53
-29 67 -19 88 16 35 39 30 104 -26 64 -54 99 -63 117 -29 20 36 6 62 -65 122
-79 65 -105 105 -105 158 0 68 52 159 91 159 9 0 37 -21 63 -47z m3830 6 c15
-18 26 -43 26 -60 0 -27 -6 -33 -55 -55 -58 -27 -105 -73 -105 -104 0 -31 19
-33 60 -6 26 17 53 26 80 26 24 0 61 11 90 25 68 35 80 33 80 -11 0 -52 -23
-84 -98 -134 -66 -45 -95 -85 -108 -146 -8 -40 26 -85 49 -66 8 7 17 26 21 42
8 41 45 76 95 90 24 6 48 21 57 35 28 42 68 42 85 -1 13 -37 -4 -67 -75 -135
-71 -66 -92 -109 -82 -165 5 -24 13 -35 30 -40 45 -11 70 -1 79 31 39 131 154
199 210 123 25 -34 17 -72 -25 -107 -111 -95 -128 -114 -134 -152 -11 -65 -48
-77 -56 -19 -3 23 -8 25 -58 28 -31 2 -62 10 -72 18 -9 9 -31 51 -48 95 -23
55 -43 87 -66 106 -19 16 -49 40 -68 55 -35 29 -56 85 -56 150 0 21 -14 55
-40 95 -75 119 -75 179 2 248 78 71 141 83 182 34z m-2384 -94 c22 -66 -38
-151 -120 -172 -14 -3 -44 -15 -67 -25 -56 -26 -67 -18 -60 45 8 60 28 85 100
120 29 14 65 39 80 57 33 36 49 30 67 -25z m1394 41 c39 -16 51 -43 42 -91 -8
-42 -48 -75 -90 -75 l-31 0 0 76 c0 63 3 78 19 90 24 17 19 17 60 0z m-1838
-81 c10 -40 -24 -115 -52 -115 -44 0 -44 123 -1 152 17 10 46 -10 53 -37z
m769 -22 c37 -36 1 -98 -117 -197 -50 -43 -70 -67 -80 -99 -11 -35 -18 -43
-41 -45 -109 -13 -76 168 55 301 55 56 58 57 111 57 39 0 61 -5 72 -17z m1330
-32 c79 -46 115 -87 115 -131 0 -37 -20 -66 -50 -70 -44 -6 -61 1 -75 33 -7
17 -30 48 -49 66 -40 39 -48 82 -19 113 21 23 19 23 78 -11z m-485 -13 c31
-46 59 -74 87 -88 100 -51 163 -110 163 -155 0 -26 -67 -85 -97 -85 -22 0 -15
-10 60 -82 108 -105 121 -148 64 -214 -19 -22 -34 -28 -80 -32 -64 -5 -70 4
-42 58 14 27 13 30 -11 59 -14 17 -51 46 -84 66 -59 36 -76 57 -63 78 4 7 10
37 13 67 4 46 8 55 26 58 12 2 35 -8 52 -22 16 -15 33 -26 36 -26 10 0 7 44
-4 77 -11 32 -24 40 -105 69 -70 25 -145 101 -145 148 0 23 6 39 18 46 27 16
95 3 112 -22z m-560 3 c24 -46 4 -135 -43 -187 -18 -22 -60 -50 -103 -69 -90
-41 -109 -67 -100 -135 6 -44 4 -50 -11 -50 -29 0 -81 37 -97 69 -18 35 -8 78
31 124 12 16 26 41 29 55 15 70 68 149 123 184 36 22 56 28 103 28 46 0 59 -4
68 -19z m292 -8 c15 -15 28 -31 28 -35 0 -18 79 -124 120 -162 54 -49 74 -96
65 -152 -9 -60 -38 -94 -81 -94 -41 0 -52 20 -30 52 39 55 10 113 -69 139 -81
26 -133 80 -164 168 -9 27 -23 56 -30 65 -27 32 -6 46 66 46 59 0 70 -3 95
-27z m616 -47 c53 -28 102 -94 102 -139 0 -48 -71 -107 -130 -107 -24 0 -26
26 -5 54 26 35 18 69 -25 110 -45 42 -47 51 -23 78 19 22 45 23 81 4z m-1859
-70 c35 -37 22 -66 -48 -112 -33 -21 -62 -47 -65 -56 -12 -48 -62 13 -51 63 9
38 94 129 121 129 11 0 31 -11 43 -24z m-205 -35 c34 -38 -7 -151 -55 -151
-24 0 -33 35 -27 102 7 67 45 90 82 49z m2703 -35 c21 -45 13 -72 -45 -148
-55 -72 -77 -82 -92 -43 -21 56 -2 118 61 190 39 44 55 44 76 1z m-1406 -14
c78 -52 152 -130 183 -192 28 -57 38 -68 83 -90 96 -47 108 -71 74 -139 -39
-75 -116 -122 -149 -89 -21 21 -14 -7 9 -36 12 -15 45 -38 73 -50 85 -38 110
-100 60 -150 -63 -63 -133 -83 -157 -45 -7 12 -4 24 13 47 25 34 23 63 -10
104 -15 20 -32 27 -77 33 -67 8 -98 22 -135 62 -56 59 -62 120 -17 165 l30 31
27 -30 c15 -17 46 -36 70 -43 26 -8 53 -26 67 -44 l23 -30 7 46 c4 28 3 54 -4
66 -15 28 -83 74 -172 117 -40 19 -82 44 -94 55 -26 24 -30 21 -39 -32 -8 -43
-53 -86 -99 -95 -33 -7 -108 -77 -132 -122 -12 -24 -11 -32 5 -69 17 -37 17
-43 4 -57 -19 -19 -23 -19 -66 0 -42 17 -61 44 -78 111 -19 74 4 118 83 158
60 30 78 53 92 120 10 47 60 86 109 86 42 -1 68 -14 79 -40 3 -8 5 1 4 20 -2
31 2 37 36 53 29 15 37 24 37 46 0 24 15 51 30 51 3 0 17 -8 31 -18z m-833 -4
c31 -39 52 -90 43 -107 -6 -10 -50 -44 -100 -77 -87 -57 -101 -73 -101 -121 0
-47 -63 -11 -76 43 -14 54 34 152 108 220 57 53 104 69 126 42z m1878 -53 c77
-82 41 -195 -61 -195 -33 0 -39 15 -18 46 17 26 16 27 -9 48 -27 23 -48 56
-48 78 0 26 40 58 72 58 22 0 40 -10 64 -35z m-209 -87 c66 -28 81 -99 42
-203 -24 -65 -42 -67 -49 -4 -4 38 -10 46 -44 66 -45 24 -75 59 -76 86 0 26
45 67 74 67 14 0 38 -5 53 -12z m-1422 -33 c14 -13 25 -33 25 -43 0 -11 -25
-47 -55 -81 -58 -65 -69 -105 -45 -152 15 -28 -13 -36 -54 -16 -60 28 -97 151
-64 210 7 12 31 41 53 65 33 35 45 42 78 42 27 0 45 -7 62 -25z m2067 8 c31
-28 22 -72 -32 -158 -28 -44 -50 -91 -50 -106 0 -30 44 -79 71 -79 22 0 51 42
69 100 30 98 50 118 84 81 36 -39 37 -77 5 -156 -16 -40 -29 -80 -29 -88 0 -8
-14 -27 -31 -42 -30 -24 -31 -29 -25 -73 3 -26 9 -59 12 -74 5 -21 2 -29 -12
-35 -13 -5 -28 5 -57 38 l-39 44 5 75 6 76 -50 42 c-67 59 -82 91 -77 166 5
73 36 144 79 180 36 30 46 32 71 9z m-2804 -38 c3 -36 -37 -81 -62 -72 -20 8
-20 28 -1 73 11 28 19 35 37 32 17 -2 24 -11 26 -33z m162 -10 c24 -29 8 -114
-35 -177 -54 -82 -75 -76 -75 22 0 58 29 131 61 154 29 20 33 20 49 1z m2446
-30 c3 -13 -1 -58 -11 -99 -9 -41 -15 -83 -13 -93 6 -32 -30 -26 -52 9 -32 53
-24 139 18 191 22 25 50 21 58 -8z m912 -55 c5 -74 -5 -102 -68 -180 -64 -80
-76 -121 -41 -139 16 -9 26 -1 71 59 56 76 80 94 110 85 16 -5 20 -15 20 -55
0 -53 5 -46 -101 -142 -22 -20 -29 -35 -29 -63 0 -24 -5 -38 -16 -42 -20 -8
-44 21 -44 54 0 16 -16 34 -53 62 -60 44 -92 98 -82 138 8 35 63 118 132 202
70 86 96 91 101 21z m-1697 -87 c36 -71 52 -91 89 -114 94 -58 93 -57 87 -106
-6 -52 -31 -92 -71 -111 -37 -19 -52 -4 -59 61 -7 57 -29 84 -78 94 -16 3 -34
13 -42 22 -18 20 -41 182 -31 225 15 70 42 52 105 -71z m602 37 c10 -9 21 -36
24 -58 5 -36 2 -45 -25 -72 -41 -40 -69 -39 -87 3 -7 18 -23 41 -34 51 -36 32
-22 80 29 99 23 9 73 -3 93 -23z m-2437 -41 c13 -26 14 -39 4 -79 -13 -52 -34
-80 -50 -64 -5 5 -14 33 -20 61 -18 96 29 154 66 82z m467 -17 c35 -38 39 -71
15 -115 -13 -23 -42 -55 -65 -72 -40 -28 -42 -33 -42 -82 -1 -49 -3 -53 -24
-53 -13 0 -33 10 -45 23 -48 51 -41 149 15 200 19 18 54 51 77 74 22 23 44 42
47 42 3 1 13 -7 22 -17z m1733 -53 c69 -42 93 -114 59 -179 -13 -25 -42 -50
-59 -50 -2 0 -2 15 0 33 5 29 2 34 -40 60 -46 29 -96 80 -96 98 0 20 50 59 76
59 15 0 42 -9 60 -21z m-959 -69 c11 -69 15 -78 56 -115 25 -23 63 -46 89 -53
53 -16 83 -44 94 -87 10 -43 50 -82 101 -97 58 -17 76 -37 75 -89 -1 -49 -26
-89 -64 -103 -44 -15 -58 -3 -47 39 8 29 7 41 -6 61 -25 39 -100 87 -158 101
-62 16 -109 58 -127 113 -7 22 -24 49 -36 61 -13 13 -24 30 -24 40 0 9 -9 27
-20 40 l-19 24 -1 -43 c0 -39 -6 -49 -69 -115 -60 -64 -69 -79 -75 -122 -11
-79 -15 -85 -45 -85 -44 0 -81 43 -81 96 0 24 4 53 9 66 5 13 15 45 22 72 9
37 19 53 42 65 50 27 67 49 67 85 0 19 -5 38 -10 41 -35 22 70 75 123 61 14
-3 32 0 43 9 36 27 48 14 61 -65z m-467 5 c9 -16 21 -49 27 -71 15 -60 -2 -92
-81 -148 -70 -50 -78 -68 -55 -120 9 -20 9 -29 -1 -41 -21 -25 -47 -17 -84 27
-47 55 -55 99 -28 152 12 23 24 55 27 71 7 33 32 65 50 65 7 0 32 22 56 49 24
27 50 49 58 48 8 -1 22 -15 31 -32z m1900 -6 c0 -5 -18 -39 -41 -74 -49 -78
-48 -104 1 -38 55 75 100 68 100 -14 0 -29 7 -53 21 -73 27 -35 30 -121 6
-165 -8 -17 -41 -54 -72 -83 -55 -51 -57 -55 -52 -95 2 -23 8 -53 12 -65 7
-21 5 -23 -16 -20 -35 5 -69 77 -69 147 0 68 14 111 60 181 42 63 62 114 54
135 -10 26 -21 16 -27 -22 -13 -79 -62 -106 -106 -59 -18 19 -24 41 -30 111
-8 82 -10 89 -40 112 -17 13 -31 28 -31 33 0 17 33 19 61 3 27 -16 30 -16 71
4 38 20 44 20 70 7 15 -8 28 -19 28 -25z m477 2 c13 -19 23 -47 23 -63 0 -49
-53 -150 -103 -195 -42 -38 -47 -46 -47 -85 0 -24 6 -68 14 -98 9 -32 11 -59
6 -64 -10 -10 -22 16 -47 99 -8 27 -26 63 -40 79 -32 39 -29 54 47 208 87 173
102 186 147 119z m-2969 6 c16 -19 25 -64 18 -91 -6 -24 -110 -158 -128 -165
-17 -6 -28 21 -28 67 0 30 10 62 31 100 50 92 82 119 107 89z m-541 -49 c6
-13 16 -37 22 -53 7 -17 23 -44 36 -59 14 -16 25 -41 25 -55 0 -62 -69 -121
-141 -121 -47 0 -108 29 -115 56 -12 48 18 58 64 19 39 -33 66 -32 91 4 29 40
27 49 -19 105 -41 50 -48 73 -30 107 15 26 54 25 67 -3z m2156 -47 c49 -50 67
-76 67 -96 0 -30 28 -58 80 -82 60 -26 70 -41 70 -100 0 -52 -2 -56 -54 -109
-60 -59 -96 -71 -96 -30 0 14 5 28 10 31 16 10 11 58 -10 92 -11 18 -47 54
-80 79 -65 51 -71 68 -40 104 18 21 18 25 5 39 -22 26 -57 111 -51 127 10 26
33 14 99 -55z m621 18 c51 -40 86 -170 66 -248 -16 -65 -33 -101 -47 -101 -10
0 -13 25 -13 94 0 94 0 95 -30 116 -16 12 -30 28 -30 37 0 8 -10 33 -22 54
-17 31 -19 41 -8 54 17 21 52 19 84 -6z m-2449 -22 c41 -64 21 -127 -32 -97
-14 8 -32 27 -41 42 -15 26 -15 28 8 53 29 31 45 32 65 2z m2168 -89 c9 -8 17
-31 19 -57 3 -38 8 -47 33 -61 19 -10 35 -31 44 -56 12 -36 12 -44 -4 -77 -23
-48 -41 -47 -64 6 -21 46 -42 72 -96 113 -42 32 -41 55 1 112 27 35 41 39 67
20z m-3293 -87 c22 -33 48 -66 59 -73 29 -20 71 -88 71 -115 0 -13 -5 -33 -10
-44 -19 -35 -100 -64 -114 -40 -3 5 3 20 14 34 29 37 25 69 -18 124 -50 62
-58 79 -67 131 -10 62 15 55 65 -17z m4459 28 c20 -57 13 -89 -28 -144 -35
-46 -40 -61 -48 -130 -4 -43 -13 -80 -19 -82 -11 -4 -46 67 -59 120 -10 37 12
112 47 165 15 24 35 56 43 73 21 39 50 38 64 -2z m-2846 -51 c18 -24 19 -31 8
-71 -7 -24 -28 -63 -47 -87 -19 -24 -33 -48 -31 -54 2 -6 20 -12 40 -14 49 -4
61 -28 54 -108 -7 -69 -40 -131 -82 -154 -37 -20 -51 -7 -59 50 l-7 51 47 43
c52 47 52 66 0 66 -47 0 -56 15 -56 95 0 81 16 134 55 182 31 39 49 39 78 1z
m-217 -3 c30 -21 21 -51 -39 -130 -85 -111 -119 -119 -119 -28 0 59 35 123 85
153 38 24 46 24 73 5z m-419 -47 c21 -26 26 -78 9 -103 -17 -25 -59 -34 -71
-15 -14 22 -25 8 -25 -33 0 -48 -51 -142 -73 -134 -7 2 -14 29 -17 63 l-5 59
-57 29 c-46 23 -58 34 -58 53 0 34 40 51 84 35 39 -14 96 -16 96 -3 0 5 15 26
34 46 36 38 55 38 83 3z m2521 16 c51 -36 70 -134 32 -169 -28 -26 -50 -5 -50
49 0 23 -9 59 -20 81 -11 22 -20 43 -20 47 0 13 34 9 58 -8z m-2373 -21 c35
-34 -6 -181 -42 -151 -17 14 -43 74 -43 100 0 20 42 68 59 68 5 0 17 -8 26
-17z m807 -10 c23 -27 38 -80 38 -133 0 -57 -22 -80 -127 -136 -60 -32 -74
-36 -87 -25 -25 21 -21 93 5 117 12 10 48 58 81 107 32 48 62 87 67 87 4 0 15
-8 23 -17z m1016 -60 c23 -42 42 -80 42 -85 0 -4 5 -8 10 -8 6 0 10 -5 10 -11
0 -6 23 -32 50 -59 58 -56 64 -88 27 -134 -30 -38 -47 -27 -47 29 0 38 -4 47
-32 68 -18 13 -50 32 -71 41 -69 32 -77 46 -77 139 0 46 3 87 7 90 20 21 43 2
81 -70z m1692 11 c16 -48 -13 -108 -78 -163 -29 -23 -52 -51 -52 -62 0 -10 14
-34 30 -52 39 -44 38 -57 -3 -57 -55 0 -82 38 -82 113 0 71 27 127 89 186 24
23 36 44 36 61 0 15 3 30 7 33 11 11 41 -23 53 -59z m-2205 26 c11 -9 49 -34
84 -55 35 -21 79 -52 98 -68 29 -26 33 -35 33 -78 0 -43 -3 -51 -24 -61 -35
-15 -81 9 -151 77 -49 47 -55 58 -53 89 1 25 -4 42 -20 59 -22 23 -28 48 -16
60 8 7 20 1 49 -23z m-2143 3 c10 -9 18 -30 18 -50 0 -24 7 -39 27 -56 77 -63
133 -141 133 -186 0 -58 -49 -101 -116 -101 l-37 0 7 -41 c12 -74 -27 -139
-83 -139 -33 0 -33 17 -1 40 41 29 42 81 3 116 -97 85 -113 103 -113 127 0 41
18 41 61 2 22 -20 51 -40 65 -45 64 -25 124 0 124 50 0 24 -10 37 -55 70 -58
43 -78 72 -90 130 -3 19 -9 42 -11 51 -5 18 20 49 38 49 6 0 20 -7 30 -17z
m2044 -14 c14 -15 19 -35 18 -71 0 -48 -4 -54 -55 -102 -30 -28 -67 -61 -82
-71 -15 -11 -34 -38 -41 -60 -20 -57 -41 -67 -72 -32 -19 22 -24 39 -24 81 0
45 4 58 30 85 17 17 48 38 69 47 33 13 41 22 50 59 11 42 49 85 76 85 6 0 20
-9 31 -21z m1713 -54 c12 -25 21 -50 21 -56 0 -7 -27 -48 -60 -91 -67 -89 -74
-120 -39 -170 45 -63 -26 -61 -73 2 -12 16 -22 55 -28 105 -8 75 -7 83 15 121
30 51 109 134 129 134 7 0 23 -20 35 -45z m-721 -122 c43 -35 54 -63 39 -93
-26 -50 -78 -51 -85 -1 -3 16 -10 21 -32 21 -30 0 -70 33 -70 57 0 7 10 23 21
34 28 28 79 20 127 -18z m-2361 5 c64 -72 52 -235 -14 -192 -14 9 -17 24 -16
64 2 39 -3 60 -17 80 -20 29 -25 51 -13 63 13 14 40 7 60 -15z m467 -28 c15
-26 17 -36 8 -51 -7 -10 -12 -26 -12 -34 0 -27 -27 -70 -54 -84 -22 -12 -28
-12 -50 2 -35 24 -40 50 -18 99 23 51 77 111 95 105 6 -2 20 -18 31 -37z
m2280 -2 c31 -69 30 -95 -4 -148 -21 -32 -34 -69 -40 -108 -10 -70 -24 -102
-47 -102 -9 0 -31 -18 -50 -40 -28 -33 -38 -38 -53 -30 -23 12 -34 59 -21 92
5 14 30 47 55 74 54 58 61 78 46 132 -12 48 -2 77 48 130 38 40 47 40 66 0z
m-216 -18 c40 -39 50 -94 24 -129 -10 -14 -29 -27 -41 -29 -19 -3 -21 1 -21
45 0 32 -7 56 -20 73 -49 63 1 98 58 40z m-2861 -8 c43 -23 140 -134 147 -169
11 -49 -19 -113 -79 -169 -49 -45 -54 -54 -49 -81 5 -25 1 -34 -21 -52 -32
-24 -85 -29 -85 -7 0 8 5 18 10 21 6 3 10 23 10 45 0 29 -8 48 -36 81 -38 46
-42 84 -12 103 14 9 25 3 61 -32 23 -23 52 -42 64 -42 30 0 53 36 53 82 0 29
-6 41 -25 54 -14 9 -37 37 -51 61 -15 24 -35 48 -45 54 -18 9 -26 49 -12 62
11 11 36 7 70 -11z m3552 -6 c14 -34 -2 -90 -42 -150 -44 -67 -50 -96 -33
-176 8 -36 11 -69 6 -73 -10 -11 -67 39 -87 76 -8 17 -19 58 -23 92 -7 55 -5
63 20 100 15 22 46 55 69 73 22 18 41 41 41 51 0 38 36 43 49 7z m-1661 -87
c119 -80 122 -83 122 -150 0 -75 -17 -96 -60 -74 -37 19 -80 62 -80 80 0 7 4
25 10 39 8 23 5 29 -35 62 -25 20 -46 44 -46 53 -1 9 -4 3 -8 -14 -5 -25 -14
-32 -55 -46 -81 -25 -126 -102 -126 -214 0 -24 -4 -46 -8 -49 -21 -12 -122 91
-122 125 0 7 17 22 79 67 17 13 26 33 32 73 9 56 27 79 63 79 12 0 43 14 71
30 49 29 50 29 68 10 9 -11 52 -43 95 -71z m-560 64 c9 -15 7 -66 -4 -119 -2
-14 -23 -31 -60 -49 -46 -23 -59 -35 -74 -70 -15 -36 -17 -50 -8 -78 6 -20 8
-44 4 -54 -7 -16 -11 -14 -35 15 -16 18 -34 51 -41 73 -12 34 -11 44 3 74 9
19 20 35 25 35 4 0 23 15 42 34 28 27 36 44 40 82 5 43 8 48 40 60 48 17 58
17 68 -3z m-770 -13 c22 -21 52 -81 52 -106 0 -7 -10 -18 -21 -25 -29 -15 -63
1 -89 43 -46 76 -1 143 58 88z m1721 -8 c29 -24 35 -37 41 -88 5 -41 16 -73
38 -104 46 -69 58 -119 38 -158 -23 -44 -47 -40 -94 13 -63 72 -74 104 -70
199 3 78 1 84 -25 115 -15 18 -25 37 -21 42 11 18 61 8 93 -19z m-136 -40 c18
-18 27 -39 27 -59 0 -39 -26 -69 -45 -53 -20 17 -67 118 -60 130 12 19 51 10
78 -18z m1059 -68 c11 -38 4 -64 -26 -99 -32 -37 -40 -137 -13 -171 21 -27 21
-34 2 -34 -8 0 -32 15 -53 34 -33 31 -37 39 -36 83 1 51 25 113 69 183 29 46
45 48 57 4z m543 16 c4 -6 -1 -35 -9 -65 -12 -40 -31 -70 -71 -113 -30 -33
-55 -68 -55 -77 0 -10 11 -33 26 -52 14 -18 22 -38 19 -43 -11 -19 -51 -10
-76 16 -20 21 -24 36 -24 88 0 53 4 68 27 98 15 20 44 46 63 58 20 12 45 40
56 61 20 39 32 48 44 29z m-1126 -27 c30 -38 36 -70 23 -132 -12 -58 -44 -101
-74 -101 -17 0 -18 2 -2 31 17 34 14 58 -17 126 -22 48 -24 74 -7 91 20 20 55
13 77 -15z m-2303 -40 c39 -43 41 -56 14 -101 -11 -18 -20 -41 -20 -52 0 -23
-56 -67 -90 -70 -60 -5 -62 2 -24 60 24 37 26 46 20 104 -5 52 -3 67 10 80 25
25 54 19 90 -21z m479 -29 c13 -33 13 -39 -5 -74 -11 -22 -20 -55 -20 -74 0
-19 -5 -38 -11 -41 -16 -11 -48 24 -61 66 -9 32 -8 42 6 63 9 14 16 36 16 49
0 56 53 64 75 11z m222 20 c3 -9 -9 -45 -31 -84 -36 -68 -45 -117 -25 -137 15
-15 3 -33 -22 -33 -28 0 -59 57 -59 108 0 54 12 77 50 97 17 9 30 24 30 34 0
10 3 21 7 24 12 13 44 7 50 -9z m1791 -67 c2 -25 -3 -46 -17 -66 -12 -16 -21
-34 -21 -39 0 -19 -33 -22 -51 -6 -47 42 0 159 60 152 22 -3 26 -8 29 -41z
m-1434 17 c10 -9 16 -33 16 -61 0 -41 -5 -50 -39 -82 -55 -51 -81 -99 -81
-148 0 -23 5 -45 10 -48 17 -10 1 -25 -26 -25 -36 0 -61 16 -79 50 -27 52 -19
92 30 156 25 31 45 65 45 74 0 17 36 54 80 83 30 20 25 20 44 1z m-888 -51
c11 -24 14 -51 10 -76 -6 -35 -2 -45 39 -99 54 -72 61 -95 45 -144 -14 -42 -8
-217 16 -429 20 -185 29 -236 58 -354 29 -116 31 -147 15 -188 -7 -15 -11 -69
-11 -120 1 -79 -2 -95 -21 -122 -12 -18 -39 -56 -60 -86 -30 -42 -41 -69 -49
-122 -12 -79 -45 -192 -61 -212 -9 -11 -13 2 -17 62 -3 43 -9 77 -15 77 -5 0
-18 -39 -27 -86 -10 -48 -29 -112 -43 -142 -20 -44 -25 -70 -25 -136 0 -80 -1
-84 -40 -136 -29 -39 -40 -63 -40 -89 0 -46 -42 -118 -114 -198 -31 -33 -56
-66 -56 -72 0 -20 36 -11 81 19 50 34 71 38 62 13 -21 -58 -76 -98 -146 -107
-54 -8 -93 -25 -143 -63 -17 -13 -54 -30 -82 -38 -58 -18 -71 -31 -48 -48 15
-11 15 -15 -4 -52 -11 -21 -20 -49 -20 -61 0 -25 -15 -39 -52 -48 -21 -5 -28
-2 -33 13 -13 41 23 127 58 140 20 8 22 16 22 82 0 59 -3 74 -15 74 -9 0 -17
-12 -20 -30 -6 -38 -43 -47 -60 -15 -26 49 15 110 75 110 58 0 67 31 21 70
-21 17 -21 93 -1 110 13 10 30 10 93 -4 60 -13 85 -14 115 -5 56 15 113 71
135 132 24 65 45 213 33 235 -11 19 -15 8 -31 -87 -13 -71 -54 -144 -79 -139
-26 5 -24 61 4 140 26 73 28 139 3 154 -23 14 -38 -25 -49 -126 -12 -113 -31
-163 -66 -168 -35 -5 -46 28 -27 80 28 79 75 269 72 291 -2 14 -10 22 -23 22
-18 0 -22 -12 -35 -107 -17 -123 -40 -167 -40 -77 0 62 12 135 40 256 11 45
20 106 20 136 0 35 9 76 26 118 15 35 33 91 41 124 9 33 19 65 23 70 4 6 18
51 30 100 29 115 32 292 6 450 -24 152 -47 431 -40 483 6 38 11 45 43 59 87
37 97 44 124 96 18 35 43 63 76 85 71 49 98 81 105 129 11 75 22 93 56 93 26
0 33 -6 46 -37z m142 20 c5 -10 12 -42 15 -71 5 -42 3 -54 -9 -59 -21 -8 -53
24 -59 61 -12 61 30 114 53 69z m1122 -55 c0 -44 -50 -128 -114 -190 -44 -43
-56 -61 -56 -85 0 -41 -30 -78 -57 -69 -27 9 -43 47 -43 102 0 75 38 123 118
146 45 13 82 48 114 107 21 38 38 33 38 -11z m765 -8 c8 -35 0 -50 -24 -50
-25 0 -41 20 -41 50 0 58 52 58 65 0z m-406 14 c36 -30 56 -90 42 -128 -12
-29 -84 -79 -109 -74 -14 3 -17 18 -19 91 -1 49 -4 95 -7 104 -16 41 47 46 93
7z m-225 -48 c30 -19 61 -45 70 -57 23 -33 21 -70 -4 -76 -27 -7 -25 -21 5
-35 33 -15 43 -48 19 -65 -29 -21 -61 -15 -97 17 -39 33 -49 58 -66 146 -22
118 -14 126 73 70z m390 -48 c5 -22 3 -28 -11 -28 -24 0 -53 30 -53 56 0 49
51 27 64 -28z m762 22 c38 -57 14 -97 -42 -71 -35 16 -49 57 -29 87 22 34 41
30 71 -16z m312 10 c2 -19 -8 -34 -43 -63 -32 -27 -45 -45 -45 -64 0 -59 55
-78 140 -48 64 23 160 19 160 -6 0 -5 -18 -32 -40 -60 -46 -58 -48 -70 -19
-110 46 -65 -8 -94 -66 -36 -40 40 -43 66 -14 113 11 19 17 35 12 36 -4 0 -41
1 -81 2 -70 1 -75 3 -103 34 -33 37 -39 90 -15 147 33 77 107 113 114 55z
m-3531 -50 c18 -36 17 -150 -3 -178 -18 -26 -75 -30 -94 -7 -11 13 -8 21 18
48 36 37 38 50 16 102 -8 21 -13 44 -10 52 9 23 59 12 73 -17z m297 -2 c24
-34 20 -73 -10 -97 -49 -38 -126 -20 -80 19 8 6 23 31 32 56 19 49 35 55 58
22z m2763 -53 c10 -20 38 -49 69 -69 28 -19 67 -54 85 -77 19 -24 51 -59 73
-78 110 -102 112 -106 134 -187 24 -91 28 -133 42 -383 10 -165 9 -186 -6
-209 -13 -20 -15 -40 -10 -111 4 -48 2 -119 -4 -161 -17 -114 -14 -469 5 -544
8 -33 21 -110 30 -169 25 -171 64 -250 143 -285 26 -12 60 -23 77 -24 36 -4
51 -30 66 -115 14 -77 29 -97 104 -145 35 -22 67 -49 71 -60 8 -25 -2 -62 -22
-82 -21 -22 -34 -11 -34 26 0 40 -25 68 -62 68 -24 0 -32 -6 -43 -34 -18 -43
-29 -50 -45 -31 -10 12 -10 24 0 60 14 51 8 99 -22 163 -19 40 -42 61 -54 50
-2 -3 0 -28 6 -56 12 -53 -1 -164 -22 -189 -36 -44 -125 17 -199 136 -23 36
-49 75 -59 86 -10 11 -25 46 -34 77 -9 31 -33 78 -53 105 -35 45 -38 53 -44
141 -4 65 -11 98 -23 110 -11 13 -16 37 -16 85 0 55 -4 70 -25 95 -13 16 -28
48 -34 71 -10 44 -36 91 -50 91 -14 0 -49 80 -61 140 -6 30 -27 91 -47 134
-49 107 -57 207 -23 290 21 49 22 61 13 118 -12 69 -1 181 19 206 8 9 12 71
13 195 1 168 7 217 35 311 7 22 4 38 -15 75 -14 25 -25 59 -25 76 0 17 -4 45
-9 62 -21 72 25 103 56 38z m-309 -21 c13 -9 22 -26 22 -42 0 -15 11 -72 25
-127 30 -121 31 -186 5 -308 -10 -50 -29 -144 -40 -207 -12 -63 -49 -198 -82
-300 -51 -154 -61 -197 -61 -255 0 -81 35 -234 93 -405 29 -85 42 -144 50
-224 9 -104 9 -111 -10 -131 -16 -17 -20 -35 -20 -97 0 -84 1 -86 79 -128 30
-16 52 -38 64 -61 16 -33 16 -40 2 -79 -28 -81 -14 -134 23 -84 38 54 100 6
112 -85 7 -61 2 -83 -18 -79 -13 3 -17 15 -17 57 0 43 -4 56 -21 67 -16 11
-23 12 -37 1 -14 -10 -15 -18 -6 -54 14 -53 6 -75 -23 -71 -16 2 -24 12 -29
36 -11 52 -26 62 -50 32 l-20 -25 7 82 c6 80 6 82 -25 120 -17 21 -34 54 -37
73 -10 54 -22 69 -58 75 -18 4 -48 16 -66 26 -29 18 -32 24 -27 54 4 21 -1 45
-12 66 -14 26 -16 42 -8 84 8 48 6 58 -21 112 -63 123 -72 169 -82 415 -5 125
-14 236 -19 245 -6 10 -11 13 -11 8 0 -24 -51 -313 -85 -490 -31 -161 -36
-203 -31 -272 6 -76 4 -88 -25 -160 -24 -59 -32 -95 -33 -145 -1 -58 -4 -68
-19 -68 -51 0 -41 126 18 222 41 65 41 71 15 140 -24 63 -25 122 -6 215 8 37
33 174 55 303 22 129 48 271 56 315 12 59 18 168 22 410 5 313 4 335 -16 418
-35 147 -34 148 59 162 40 6 54 16 126 91 75 77 84 84 120 84 22 0 50 -7 62
-16z m566 -5 c33 -26 33 -50 1 -86 l-25 -28 -25 28 c-29 33 -32 63 -8 89 20
23 24 23 57 -3z m-844 -34 c16 -20 9 -49 -14 -53 -22 -5 -46 22 -46 50 0 22
42 25 60 3z m-1560 -31 c15 -37 12 -269 -4 -344 -9 -44 -12 -107 -8 -197 3
-97 2 -133 -7 -133 -22 0 -51 112 -71 270 -7 52 -16 122 -20 155 -7 51 -4 68
15 115 12 30 25 69 29 85 9 36 33 75 46 75 6 0 15 -12 20 -26z m1069 -32 c13
-25 -23 -131 -55 -160 -20 -17 -29 -20 -45 -12 -24 13 -27 91 -4 110 8 7 15
25 15 41 0 55 63 70 89 21z m-744 -4 c62 -39 162 -152 174 -195 19 -66 13
-240 -9 -311 -17 -53 -20 -92 -20 -225 1 -265 32 -435 107 -578 24 -45 35 -81
36 -114 2 -58 -19 -73 -28 -21 -8 37 -37 72 -54 62 -7 -5 -3 -25 10 -59 11
-29 27 -93 34 -142 8 -50 19 -103 24 -119 22 -57 6 -181 -26 -193 -19 -7 -29
9 -44 72 -25 111 -41 155 -55 155 -10 0 -13 -7 -9 -22 13 -61 23 -151 18 -166
-9 -25 -44 -62 -59 -62 -19 0 -21 8 -33 100 -17 129 -21 150 -31 150 -5 0 -10
-60 -12 -132 l-3 -133 -63 -99 c-68 -109 -75 -128 -93 -261 -6 -49 -16 -98
-21 -108 -5 -10 -10 -33 -10 -50 -1 -41 -14 -57 -47 -57 -42 0 -55 14 -46 46
15 59 10 106 -14 125 -41 33 -69 21 -78 -35 -4 -26 0 -47 12 -70 22 -41 14
-66 -20 -66 -35 0 -65 33 -65 73 1 93 42 157 100 157 42 0 100 -58 100 -100 0
-28 2 -31 15 -20 11 9 14 23 9 45 -4 21 0 44 10 63 31 61 18 82 -49 82 -19 0
-36 4 -39 9 -8 12 11 111 24 126 8 9 20 10 50 1 61 -16 84 12 114 139 30 123
40 218 23 212 -7 -2 -17 -40 -23 -88 -11 -92 -27 -130 -71 -171 -62 -59 -107
-32 -82 49 17 56 43 68 60 29 7 -14 15 -26 18 -26 12 0 12 983 1 1020 -20 63
-58 293 -70 415 -6 66 -20 159 -30 206 -32 141 -24 229 27 290 l27 31 85 -4
c70 -3 93 -9 126 -30z m998 1 c21 -34 -15 -99 -55 -99 -15 0 -18 4 -13 18 4 9
10 31 12 47 3 17 6 36 9 43 5 17 34 12 47 -9z m699 -93 c22 -70 16 -375 -10
-551 -12 -82 -26 -199 -31 -260 -7 -88 -16 -128 -44 -201 -42 -110 -84 -194
-96 -194 -26 0 -20 170 15 380 7 47 14 112 14 145 0 43 6 68 20 90 16 23 19
39 14 73 -4 26 -2 47 5 56 8 9 16 89 22 208 10 197 21 281 41 305 16 19 35 0
50 -51z m-2818 -4 c46 -91 69 -188 61 -256 -4 -33 -8 -151 -8 -261 -2 -202 -9
-245 -41 -245 -13 0 -22 46 -42 195 -3 28 -11 73 -16 100 -5 28 -12 142 -15
255 -6 261 9 314 61 212z m1541 -22 l60 -61 -33 -92 c-37 -106 -38 -113 -16
-220 32 -158 -13 -544 -79 -677 -56 -113 -74 -85 -76 116 0 66 -12 230 -26
365 -39 368 -40 388 -22 461 9 34 19 76 22 91 8 38 51 77 84 77 19 0 43 -17
86 -60z m1830 0 c0 -20 -6 -26 -26 -28 -32 -4 -45 21 -22 43 22 23 48 15 48
-15z m-1377 -47 c2 -15 -6 -32 -24 -48 -49 -45 -67 -26 -43 44 9 27 16 32 38
29 18 -2 27 -10 29 -25z m193 -13 c4 -14 7 -66 8 -116 1 -78 5 -98 27 -140
l26 -49 -12 -125 c-14 -150 -47 -389 -62 -447 -9 -38 -31 -62 -42 -45 -2 4
-18 63 -35 132 -34 138 -57 287 -65 425 -4 50 -11 136 -18 192 -15 127 -8 144
64 179 65 30 100 28 109 -6z m1291 -105 c46 -46 53 -96 52 -390 -1 -233 -4
-285 -22 -380 -12 -60 -27 -137 -33 -170 -6 -33 -15 -82 -20 -108 -16 -84 -11
-157 17 -232 44 -120 61 -178 69 -233 4 -29 23 -85 42 -125 47 -96 54 -115 43
-122 -12 -8 -36 19 -82 92 -22 34 -46 63 -54 63 -17 0 -18 4 6 -72 11 -35 34
-82 52 -103 56 -68 61 -75 50 -75 -6 0 -40 27 -76 60 -73 69 -91 106 -131 270
-49 200 -45 361 24 890 5 41 13 167 16 280 6 174 4 212 -9 249 -37 102 -4 166
56 106z m-1600 -90 c32 -22 41 -23 63 -13 14 6 28 8 33 4 4 -4 10 -164 13
-354 6 -344 6 -348 38 -496 18 -83 44 -186 58 -230 22 -71 25 -91 19 -161 -4
-44 -11 -123 -15 -175 -6 -80 -15 -111 -51 -195 -59 -137 -61 -172 -16 -258
20 -37 38 -84 42 -104 8 -51 -15 -114 -46 -130 -31 -16 -342 -18 -371 -3 -14
8 -19 21 -19 56 0 30 -7 56 -20 74 -26 36 -28 55 -11 108 13 39 13 46 -9 91
-21 47 -22 56 -15 193 6 121 4 153 -10 203 -33 111 -3 377 56 516 24 55 24
109 -2 525 -9 148 -9 201 1 240 6 27 14 64 17 82 6 40 23 49 62 32 24 -9 34
-9 58 4 41 22 83 19 125 -9z m-1046 -717 c3 -12 3 -78 0 -147 -10 -190 5 -355
38 -427 35 -75 30 -142 -14 -203 -16 -22 -39 -61 -51 -86 l-22 -46 -51 3 c-36
2 -59 -3 -79 -16 -42 -29 -56 -8 -27 41 50 84 81 177 90 268 4 50 15 110 23
135 41 122 47 160 49 316 2 87 7 165 11 172 12 18 25 15 33 -10z m1994 -321
c10 -23 23 -72 29 -107 13 -88 34 -414 30 -470 l-4 -45 -43 1 c-52 1 -93 28
-104 70 -5 16 -11 110 -14 209 -5 143 -3 197 9 264 24 125 63 156 97 78z
m-496 -134 c3 -21 6 -61 6 -89 0 -28 7 -68 15 -87 8 -20 15 -57 15 -82 0 -26
5 -55 11 -67 12 -22 -3 -165 -23 -224 -9 -24 -7 -44 8 -94 11 -35 24 -65 30
-67 6 -2 23 26 39 63 15 36 34 68 42 71 7 3 24 -2 38 -11 33 -22 33 -68 0
-108 -31 -37 -24 -51 21 -42 86 16 137 -53 113 -153 -14 -57 -25 -73 -51 -73
-29 0 -32 25 -8 76 25 51 18 87 -19 99 -52 16 -101 -45 -68 -83 46 -54 43 -92
-8 -92 -41 0 -44 5 -51 72 -8 84 -11 91 -49 121 -42 34 -54 30 -29 -8 25 -38
25 -122 0 -140 -26 -19 -36 -10 -36 31 0 60 -30 100 -62 83 -20 -11 -24 -53
-8 -94 19 -49 -26 -90 -50 -46 -18 34 -12 132 10 174 11 20 20 46 20 57 0 10
-9 24 -20 30 -22 12 -26 40 -10 71 16 29 35 23 69 -23 37 -50 40 -35 12 62
-30 108 -34 155 -16 191 17 33 16 57 -5 139 -12 48 -8 102 17 213 16 75 37 88
47 30z m-1718 -40 c-8 -27 -23 -99 -32 -160 -16 -107 -27 -133 -40 -98 -4 9
-2 61 4 116 9 86 16 109 44 155 37 62 47 57 24 -13z m898 -381 c9 -81 18 -165
21 -187 6 -61 -11 -78 -25 -26 -40 151 -61 353 -50 489 13 164 24 167 32 9 4
-76 14 -204 22 -285z m1485 266 c17 -51 37 -124 45 -163 18 -87 8 -104 -35
-57 -26 29 -29 39 -29 105 0 39 -7 97 -15 127 -17 64 -18 80 -6 80 5 0 23 -42
40 -92z m-1687 -230 c8 -14 13 -60 13 -115 l0 -93 28 0 c30 0 33 -13 12 -50
-30 -52 -6 -69 35 -25 29 31 66 33 75 5 9 -28 -11 -50 -45 -50 -16 0 -42 -12
-59 -26 -27 -23 -31 -32 -31 -77 0 -53 -13 -124 -24 -135 -4 -3 -11 -1 -18 6
-8 8 -8 22 2 56 10 38 10 49 -5 78 -9 18 -20 56 -25 84 -10 61 -35 124 -49
124 -6 0 -17 -15 -26 -34 -9 -18 -29 -46 -45 -61 -17 -16 -30 -34 -30 -41 0
-6 20 -17 45 -23 47 -12 75 -46 75 -91 0 -42 -51 -113 -64 -91 -4 5 -2 31 4
57 10 43 9 49 -12 71 -18 19 -29 23 -53 19 -46 -10 -56 -29 -38 -81 16 -47 6
-85 -22 -85 -50 0 -63 102 -20 160 21 28 25 45 25 100 0 133 47 218 106 191
43 -19 54 -14 54 25 0 35 50 124 70 124 5 0 15 -10 22 -22z m-762 -96 c0 -27
-6 -57 -14 -68 -14 -18 -15 -18 -26 10 -6 16 -8 43 -4 60 8 40 12 46 30 46 10
0 14 -13 14 -48z m2534 33 c-1 -15 -85 -55 -116 -55 -17 0 -28 5 -28 13 0 15
26 41 50 50 24 9 95 3 94 -8z m-345 -41 c18 -25 30 -48 27 -51 -3 -3 -17 -2
-31 1 -38 10 -71 96 -36 96 4 0 22 -21 40 -46z m-2104 -44 c7 -24 -17 -115
-40 -147 -9 -12 -32 -30 -52 -40 -20 -9 -50 -36 -66 -60 -41 -57 -51 -45 -55
67 -3 76 -1 91 12 96 10 4 25 -1 36 -11 38 -34 69 -13 122 84 20 36 34 39 43
11z m163 -7 c4 -24 -32 -95 -83 -167 -31 -43 -35 -55 -35 -112 0 -71 -25 -149
-40 -125 -5 8 -4 25 1 38 22 58 -1 113 -47 113 -49 0 -54 -8 -54 -80 0 -79
-14 -97 -35 -46 -31 74 -9 136 58 167 23 10 50 19 60 19 26 0 57 37 57 68 0
44 30 121 53 137 30 21 61 15 65 -12z m-1202 -28 c-3 -25 -9 -65 -12 -89 -3
-26 -21 -68 -40 -98 -19 -29 -34 -57 -34 -64 0 -24 -42 -64 -67 -64 -42 0 -84
31 -81 60 3 22 8 25 43 26 22 0 48 4 57 8 22 10 47 64 68 151 21 86 35 115 56
115 13 0 15 -8 10 -45z m3506 4 c21 -42 23 -99 4 -125 -23 -30 -40 -6 -28 40
8 26 7 48 -4 81 -16 56 1 59 28 4z m-67 -12 c9 -44 3 -103 -10 -100 -5 1 -13
22 -16 45 -4 24 -10 53 -14 66 -6 18 -4 22 13 22 16 0 23 -8 27 -33z m-3228
-8 l22 -22 -30 -35 c-17 -19 -28 -40 -25 -47 3 -8 8 -29 11 -47 6 -31 2 -38
-35 -72 -23 -20 -49 -36 -58 -34 -10 2 -22 28 -36 81 -20 76 -20 78 -2 110 50
86 105 110 153 66z m3123 2 c5 -11 10 -34 10 -52 0 -17 12 -58 27 -91 21 -47
30 -58 45 -55 10 3 26 -2 35 -11 15 -15 14 -17 -14 -24 -21 -5 -35 -18 -43
-38 -11 -27 -10 -32 14 -61 29 -34 27 -49 -8 -49 -33 0 -41 15 -55 100 -7 41
-20 89 -29 105 -10 17 -29 56 -41 88 -19 47 -22 63 -13 83 14 30 57 33 72 5z
m1064 -12 c24 -19 26 -27 26 -91 0 -64 2 -72 29 -96 15 -15 62 -44 103 -66 48
-24 80 -47 87 -63 12 -26 15 -82 5 -107 -12 -32 -24 -15 -24 34 0 74 -45 113
-85 73 -19 -18 -17 -67 6 -121 12 -28 12 -34 -1 -42 -8 -6 -22 -9 -30 -7 -12
2 -14 17 -11 80 l3 78 -56 59 c-31 32 -56 66 -56 76 0 26 -79 184 -95 190 -26
10 -5 24 34 24 24 0 48 -8 65 -21z m-177 -36 c84 -26 93 -39 94 -136 0 -45 4
-91 8 -101 7 -19 8 -19 13 2 9 32 30 27 77 -18 30 -29 41 -47 40 -67 -2 -25
-2 -26 -6 -5 -10 52 -78 94 -99 61 -3 -6 -7 -41 -8 -77 -1 -55 -4 -67 -18 -70
-16 -3 -18 6 -18 76 l0 80 -60 52 c-45 39 -69 70 -96 125 -20 40 -33 78 -30
84 10 15 41 14 103 -6z m-2322 -136 c21 -18 28 -35 35 -91 10 -78 6 -96 -20
-96 -28 0 -31 13 -18 69 12 55 5 74 -33 84 -55 15 -79 -78 -34 -131 29 -35 32
-52 8 -52 -49 1 -70 57 -64 172 3 61 77 88 126 45z m1694 -51 c18 -30 35 -73
38 -95 5 -36 3 -41 -20 -52 -40 -18 -58 2 -51 54 3 26 -1 59 -10 86 -19 53
-20 61 -3 61 7 0 28 -24 46 -54z m-619 -42 c0 -23 -5 -34 -15 -34 -16 0 -30
42 -21 65 10 27 36 5 36 -31z m-1956 20 c6 -16 -17 -64 -31 -64 -13 -1 -15 38
-3 59 13 25 26 27 34 5z m224 -22 c3 -28 0 -33 -15 -30 -12 2 -19 14 -21 36
-3 28 0 33 15 30 12 -2 19 -14 21 -36z m310 -21 c-4 -48 -32 -50 -36 -3 -5 49
4 68 24 51 10 -8 14 -25 12 -48z m311 31 c12 -23 -2 -47 -23 -39 -24 10 -20
57 5 57 5 0 13 -8 18 -18z m841 -12 c0 -10 -4 -21 -9 -25 -12 -7 -25 31 -16
45 9 15 25 2 25 -20z m797 -43 c4 -29 1 -47 -7 -52 -15 -9 -26 7 -42 57 -9 30
-8 41 2 53 20 24 41 -2 47 -58z m-3467 43 c63 -32 76 -78 41 -136 -20 -33 -76
-61 -87 -43 -3 6 4 30 17 54 20 37 21 47 11 69 -15 34 -49 35 -58 1 -8 -32
-24 -22 -24 15 0 31 22 60 46 60 8 0 32 -9 54 -20z m3230 -20 c0 -11 -7 -20
-15 -20 -8 0 -15 9 -15 20 0 11 7 20 15 20 8 0 15 -9 15 -20z m-3474 -32 c-3
-13 -6 -29 -6 -35 0 -23 -18 -14 -24 12 -8 30 -1 45 21 45 11 0 14 -6 9 -22z
m104 -38 c9 -21 9 -34 2 -43 -6 -6 -12 -28 -14 -47 -3 -35 -3 -35 -53 -35 -39
0 -50 4 -53 17 -2 11 6 22 23 30 14 6 28 22 30 35 3 13 7 34 10 48 8 36 39 33
55 -5z m4520 -29 c0 -22 -6 -44 -15 -51 -13 -11 -15 -6 -15 39 0 39 4 51 15
51 11 0 15 -11 15 -39z m177 -22 l2 -54 -14 40 c-17 52 -18 78 -2 73 7 -3 13
-26 14 -59z m-3310 15 c3 -9 -6 -28 -24 -47 -39 -41 -53 -69 -53 -105 0 -34
-14 -42 -69 -42 -67 0 -79 41 -35 116 31 52 60 74 112 85 57 11 62 10 69 -7z
m347 9 c4 -4 -10 -21 -30 -38 -27 -23 -38 -42 -43 -70 -6 -39 -7 -40 -54 -43
-40 -3 -47 0 -47 15 0 21 51 106 71 118 12 8 62 22 85 24 6 1 14 -2 18 -6z
m126 -8 c10 -12 2 -26 -47 -80 -61 -69 -86 -78 -91 -32 -4 33 28 81 72 108 37
23 50 24 66 4z m-300 -4 c0 -6 -17 -25 -37 -45 -24 -23 -41 -50 -48 -78 -10
-43 -10 -43 -53 -42 -23 0 -45 4 -49 7 -11 11 15 82 47 125 29 40 32 42 85 42
30 0 55 -4 55 -9z m-389 -17 c11 -13 7 -20 -24 -49 -20 -19 -37 -44 -37 -55 0
-47 -17 -60 -80 -60 -38 0 -60 4 -63 13 -6 16 28 107 48 126 37 37 133 53 156
25z m3076 0 c3 -8 0 -21 -6 -27 -10 -9 -16 -8 -26 7 -8 10 -12 23 -9 27 9 15
34 10 41 -7z m-3490 -10 c2 -6 -12 -31 -32 -54 -20 -24 -39 -56 -42 -72 -7
-36 -46 -54 -80 -39 -19 9 -22 16 -17 38 14 57 68 126 109 136 30 8 58 3 62
-9z m200 1 c14 -5 11 -10 -15 -33 -18 -15 -38 -45 -45 -67 -13 -38 -16 -40
-61 -43 -35 -2 -48 1 -52 13 -15 38 47 119 102 134 28 8 34 7 71 -4z m2088
-27 c39 -34 75 -95 75 -128 0 -15 -6 -20 -29 -20 -16 0 -41 4 -55 10 -21 8
-26 16 -26 45 0 26 -9 45 -35 74 -19 21 -35 41 -35 45 0 3 16 6 35 6 24 0 45
-9 70 -32z m132 21 c39 -14 77 -53 98 -99 25 -56 16 -72 -42 -68 -47 3 -48 4
-51 38 -2 25 -15 47 -44 77 -54 55 -36 81 39 52z m209 -17 c28 -15 98 -118 90
-131 -4 -6 -29 -11 -56 -11 l-50 0 -11 45 c-7 26 -24 57 -41 74 -17 16 -27 34
-24 39 7 11 59 2 92 -16z m224 -35 c56 -62 63 -74 56 -93 -4 -11 -18 -14 -53
-12 -44 3 -48 6 -70 48 -13 24 -33 54 -45 67 -31 33 -18 56 29 47 28 -5 49
-19 83 -57z m-3020 43 c0 -5 -13 -16 -29 -25 -38 -19 -44 -30 -51 -85 -5 -42
-7 -45 -38 -48 -39 -4 -62 12 -62 42 0 37 34 89 70 108 37 19 110 25 110 8z
m2326 -25 c19 -14 34 -35 34 -46 0 -25 -8 -24 -54 11 -22 17 -50 30 -62 30
-26 0 -39 14 -28 31 10 18 72 3 110 -26z m893 -14 c40 -40 67 -100 57 -126 -3
-9 -19 -15 -41 -15 -32 0 -37 4 -54 43 -10 23 -37 60 -60 81 -22 22 -38 43
-35 48 3 4 25 8 50 8 38 0 49 -5 83 -39z m-3553 2 c-3 -16 -9 -44 -13 -63 -7
-40 -17 -50 -54 -50 -39 0 -50 19 -34 55 17 37 34 58 60 73 35 20 48 15 41
-15z m2334 -5 c333 -80 599 -347 682 -684 27 -112 29 -302 4 -413 -76 -342
-334 -609 -677 -703 -72 -20 -106 -23 -239 -22 -138 1 -165 4 -243 27 -165 51
-305 135 -416 252 -115 122 -189 253 -233 416 -30 113 -32 327 -4 439 129 509
621 810 1126 688z m1378 9 c26 -28 52 -88 52 -121 0 -19 -7 -27 -24 -32 -40
-10 -65 4 -75 42 -5 20 -22 51 -36 70 -34 45 -27 64 23 64 27 0 45 -7 60 -23z
m-3848 -22 c0 -7 -11 -20 -24 -29 -16 -10 -26 -27 -28 -48 -2 -27 -8 -34 -29
-36 -34 -4 -62 23 -53 52 20 68 134 120 134 61z m3986 9 c26 -16 106 -133 101
-148 -5 -16 -66 -20 -82 -6 -23 19 -105 161 -99 171 6 11 51 2 80 -17z m222
-39 c40 -43 44 -95 10 -119 -28 -20 -45 -7 -54 40 -5 25 -17 41 -48 62 -22 15
-42 36 -44 46 -4 17 1 18 49 13 45 -5 60 -12 87 -42z m121 11 c35 -19 50 -36
61 -76 7 -25 5 -35 -11 -51 -26 -26 -49 -10 -49 33 0 21 -10 38 -35 60 -49 44
-28 65 34 34z m-4532 -56 c-1 -48 -2 -50 -30 -50 -29 0 -29 1 -23 42 4 23 12
46 19 50 27 17 35 7 34 -42z m4704 1 c34 -35 40 -81 10 -81 -13 0 -21 9 -26
29 -3 16 -15 37 -25 46 -19 17 -18 35 1 35 6 0 24 -13 40 -29z m102 8 c22 -10
47 -46 47 -69 0 -16 -30 -39 -44 -34 -8 3 -16 18 -19 33 -3 16 -9 40 -13 55
-7 29 -5 30 29 15z m-3364 -83 c33 -30 27 -69 -18 -116 -35 -37 -41 -40 -60
-28 -17 10 -23 10 -33 0 -10 -10 -10 -14 1 -21 11 -7 4 -18 -30 -50 -24 -22
-50 -41 -56 -41 -18 0 -16 -27 2 -38 13 -7 14 -14 5 -38 -15 -38 -49 -74 -71
-74 -9 0 -19 -7 -23 -15 -3 -9 0 -15 8 -15 25 0 38 -74 14 -82 -17 -6 0 -28
22 -28 22 0 30 -19 30 -75 0 -63 -20 -72 -116 -49 -41 9 -77 21 -80 26 -3 4
-18 8 -33 8 -16 0 -39 8 -52 19 -24 19 -109 25 -125 9 -11 -11 -52 -10 -59 2
-3 6 -17 10 -29 10 -21 0 -26 10 -46 83 -13 45 -35 102 -49 127 -38 66 -50 97
-72 180 -23 91 -24 110 -4 110 8 0 15 5 15 10 0 6 0 13 0 18 0 4 -8 7 -18 7
-28 0 -19 28 11 36 85 23 449 47 673 45 154 -1 174 -3 193 -20z m-1133 4 c22
0 49 -6 59 -14 17 -12 18 -17 6 -54 -8 -22 -11 -49 -7 -59 7 -15 9 -14 21 12
7 17 22 36 34 43 19 11 22 10 30 -10 5 -13 6 -29 3 -36 -3 -9 4 -12 24 -10 38
4 43 -23 14 -74 -22 -39 -21 -63 2 -40 39 39 60 -15 24 -59 -30 -35 -33 -54
-10 -63 10 -4 18 0 21 13 6 25 32 35 39 16 7 -17 2 -29 -23 -63 l-16 -24 36 7
c33 6 37 5 37 -13 0 -11 -13 -30 -30 -42 -16 -12 -30 -28 -30 -37 0 -12 9 -14
50 -8 61 8 66 -6 19 -60 l-31 -35 25 0 c14 0 29 5 32 10 11 18 26 10 23 -12
-2 -15 -14 -26 -33 -33 -16 -5 -33 -14 -37 -20 -11 -15 21 -28 55 -21 20 4 50
0 80 -11 45 -16 51 -16 96 0 81 28 156 23 237 -18 78 -40 111 -43 171 -16 70
32 88 100 53 194 -29 77 -30 120 -2 154 27 33 36 54 51 110 9 34 23 51 67 85
31 23 61 56 69 74 7 17 23 35 35 39 22 7 50 -9 50 -29 0 -12 -50 -66 -95 -104
l-27 -22 31 -29 c43 -41 42 -76 -4 -98 -40 -19 -42 -28 -17 -56 9 -11 13 -22
7 -24 -34 -12 -38 -21 -21 -44 21 -30 21 -33 -9 -65 -23 -24 -24 -29 -10 -44
17 -19 20 -46 5 -55 -5 -3 -10 -25 -10 -49 0 -72 -53 -101 -235 -127 -49 -7
-91 -13 -93 -14 -2 -2 8 -20 23 -40 20 -30 25 -50 25 -95 0 -56 2 -61 68 -146
64 -84 71 -90 132 -112 87 -31 98 -42 81 -87 -15 -43 -9 -55 29 -55 24 0 33
-9 64 -64 55 -99 47 -159 -24 -175 -60 -13 -76 5 -44 54 14 21 14 26 -1 57
-21 40 -124 178 -134 178 -4 0 -49 25 -100 56 -79 48 -103 57 -164 65 -83 10
-197 60 -265 116 -24 19 -44 34 -46 32 -2 -2 -7 -24 -12 -49 -12 -60 -47 -79
-98 -55 -19 9 -47 33 -62 52 -14 19 -46 43 -70 53 -30 13 -49 30 -63 57 -39
73 -42 73 -35 -9 l7 -76 -64 -65 c-62 -63 -67 -66 -144 -82 -44 -10 -89 -26
-99 -36 -18 -16 -18 -21 -5 -46 8 -16 14 -56 14 -92 l0 -64 40 -11 c30 -9 44
-20 57 -46 23 -48 23 -50 -18 -50 -39 0 -67 12 -102 44 -43 38 -54 73 -57 183
l-4 103 37 25 c20 14 58 32 84 41 69 22 77 44 39 101 -49 74 -40 160 27 252
41 57 41 78 0 89 -29 7 -33 13 -36 47 -2 21 3 55 12 74 29 70 35 153 19 279
-6 53 -15 78 -31 94 -16 16 -25 19 -33 11 -8 -8 -3 -25 19 -63 33 -58 32 -97
-7 -146 -11 -15 -21 -40 -21 -56 0 -42 -28 -48 -56 -12 -32 40 -39 77 -20 115
9 18 16 56 16 85 0 29 5 56 10 59 6 3 10 22 10 42 0 20 9 46 20 60 11 14 20
36 20 49 0 29 105 107 135 99 11 -2 38 -5 61 -5z m3389 -7 c-26 -67 -17 -121
24 -146 42 -25 87 -22 117 8 22 22 25 33 22 73 -2 37 0 47 14 50 23 5 50 -40
54 -90 2 -28 10 -47 23 -58 17 -12 20 -22 14 -55 -3 -22 -11 -46 -17 -54 -7
-10 -6 -16 7 -26 15 -11 16 -21 9 -74 -8 -53 -15 -68 -47 -101 -35 -36 -44
-40 -86 -40 -51 0 -73 -14 -39 -25 25 -8 35 -46 20 -74 -15 -28 4 -27 27 2 21
27 99 81 130 91 12 4 33 27 47 51 42 71 121 83 186 28 17 -14 30 -34 30 -44 0
-28 -34 -90 -64 -118 -14 -14 -26 -35 -26 -47 0 -30 60 -108 86 -112 12 -2 43
9 70 23 42 23 56 26 104 20 67 -8 140 -38 170 -70 33 -35 69 -170 58 -215 -5
-19 -11 -53 -13 -75 -8 -67 -13 -79 -45 -97 -23 -13 -30 -24 -30 -48 0 -24
-12 -44 -50 -84 -27 -29 -50 -56 -50 -59 0 -4 -11 -31 -25 -61 -14 -30 -25
-62 -25 -70 0 -9 -16 -34 -36 -56 -33 -36 -41 -40 -84 -40 -32 0 -50 5 -53 14
-8 21 8 72 31 97 11 11 23 32 26 45 7 25 103 150 150 193 22 21 24 29 19 68
-5 36 -2 50 16 73 39 53 24 64 -23 16 -51 -51 -117 -76 -203 -76 -97 0 -153
42 -107 81 55 45 82 194 48 265 l-19 39 -6 -70 c-6 -75 -37 -148 -90 -216 -33
-42 -36 -64 -12 -77 25 -14 12 -108 -23 -168 -25 -42 -29 -60 -31 -139 -2 -87
-17 -152 -38 -167 -16 -12 -113 -9 -120 3 -4 6 2 21 14 33 26 27 28 95 5 130
-21 34 2 48 28 16 15 -19 20 -20 34 -9 28 23 13 100 -30 156 -30 39 -36 54
-32 77 l6 30 -26 -25 c-20 -19 -24 -30 -20 -52 3 -17 0 -40 -8 -56 -8 -14 -17
-42 -20 -61 -6 -38 -107 -217 -134 -237 -17 -14 -124 -18 -136 -6 -3 4 16 30
43 57 69 72 142 256 101 256 -5 0 -12 -9 -15 -20 -4 -13 -15 -20 -31 -20 -15
0 -24 -6 -24 -15 0 -8 7 -15 15 -15 18 0 19 -9 5 -44 -5 -14 -16 -26 -25 -26
-17 0 -21 -25 -5 -35 19 -12 -4 -36 -46 -46 -42 -11 -44 -13 -44 -49 0 -21 -6
-42 -12 -48 -15 -12 -527 -22 -534 -11 -8 14 82 47 111 41 26 -4 27 -3 23 21
-4 20 1 30 17 41 11 8 64 62 116 122 52 59 109 123 127 142 17 19 32 41 32 48
0 31 24 64 46 64 23 0 45 21 28 27 -30 11 -34 20 -23 51 6 18 17 32 25 32 11
0 13 8 9 34 -4 18 0 69 9 112 9 44 19 117 23 163 5 47 13 86 19 88 6 2 19 -15
28 -38 16 -39 16 -42 -1 -55 -17 -13 -17 -15 0 -28 21 -16 22 -45 2 -52 -8 -4
-15 -12 -15 -19 0 -7 7 -15 15 -19 8 -3 15 -17 15 -31 0 -16 -6 -25 -15 -25
-8 0 -15 -7 -15 -15 0 -8 9 -15 19 -15 17 0 31 -18 31 -41 0 -5 -11 -9 -25 -9
-16 0 -25 -6 -25 -15 0 -17 35 -20 45 -4 9 13 57 -90 51 -108 -3 -7 7 -19 24
-28 17 -9 33 -28 39 -48 l12 -34 45 15 c48 16 105 76 144 153 23 44 64 198 56
206 -3 4 -6 -1 -6 -10 0 -9 -4 -17 -9 -17 -5 0 -17 -21 -26 -47 -33 -92 -76
-178 -102 -205 -27 -28 -66 -37 -78 -18 -5 9 83 178 142 272 12 21 23 43 23
50 0 15 -61 -68 -123 -167 -41 -67 -50 -76 -73 -73 -15 2 -33 13 -41 25 -15
22 -11 27 74 115 77 81 143 170 143 194 0 4 -12 -8 -27 -26 -93 -116 -177
-185 -210 -173 -18 7 -17 33 2 33 20 0 195 168 195 188 0 8 -32 -16 -70 -54
-103 -99 -150 -126 -150 -86 0 11 16 27 40 41 44 24 46 47 3 30 -28 -10 -53
-6 -53 10 0 5 16 19 35 31 78 48 84 71 19 67 -28 -1 -48 3 -51 9 -7 19 61 54
104 54 48 0 75 23 46 38 -44 23 -69 22 -92 -2 -28 -30 -57 -38 -96 -27 -36 9
-35 26 3 27 15 1 35 2 44 3 22 1 34 46 18 65 -6 8 -25 18 -41 21 -35 8 -37 22
-5 35 34 13 40 27 16 40 -17 9 -20 21 -20 77 0 62 2 67 35 97 42 38 43 55 10
86 -28 27 -32 52 -10 70 8 7 15 23 15 36 0 28 36 64 63 64 14 0 17 -5 12 -17z
m-155 -14 c0 -6 -5 -19 -10 -29 -8 -15 -6 -21 10 -30 24 -13 28 -60 5 -60 -8
0 -15 -9 -15 -19 0 -10 7 -21 15 -25 22 -8 18 -39 -6 -59 -19 -17 -20 -20 -5
-36 12 -14 14 -31 9 -84 -5 -59 -10 -71 -36 -93 -16 -14 -36 -24 -45 -22 -18
4 -63 146 -63 197 0 24 -5 34 -19 38 -23 6 -33 32 -25 66 5 20 2 26 -19 31
-25 6 -56 50 -56 81 0 8 -11 20 -25 25 -58 22 -22 30 130 30 103 0 155 -4 155
-11z m251 -9 c25 -14 25 -62 -1 -85 -18 -17 -21 -17 -45 -1 -17 11 -25 26 -25
44 0 46 30 64 71 42z m292 -17 c4 -2 7 -13 7 -23 0 -29 17 -33 39 -9 22 24 41
18 41 -12 0 -27 30 -37 46 -15 11 16 16 15 66 -10 87 -44 100 -55 87 -70 -6
-8 -9 -21 -5 -29 7 -19 35 -19 42 0 9 21 20 19 70 -15 32 -23 44 -38 44 -55 0
-20 -5 -25 -25 -25 -18 0 -25 -5 -25 -20 0 -15 7 -20 26 -20 21 0 25 -4 22
-22 -2 -15 -11 -24 -25 -26 -30 -4 -32 -42 -3 -42 15 0 20 -7 20 -26 0 -17 -6
-28 -20 -31 -23 -6 -28 -43 -6 -43 8 0 18 -5 21 -10 10 -16 -5 -50 -21 -50
-22 0 -17 -37 6 -43 22 -6 28 -36 8 -38 -62 -4 -184 3 -201 12 -19 11 -19 13
-4 24 19 14 22 40 7 50 -5 3 -10 17 -10 31 0 13 5 24 10 24 15 0 12 29 -5 46
-8 9 -15 20 -15 25 0 5 7 12 15 15 23 9 19 44 -6 44 -11 0 -54 16 -95 35 -63
30 -74 39 -74 60 0 20 -5 25 -25 25 -14 0 -25 -4 -25 -10 0 -18 -29 -10 -44
12 -20 28 -21 74 -1 82 23 8 18 33 -9 40 -18 4 -25 15 -30 43 -3 21 -9 48 -12
60 -5 17 -1 22 18 26 23 4 76 -1 91 -10z m-4394 -97 c29 -31 58 -124 76 -245
19 -136 39 -535 32 -661 -6 -105 -41 -264 -72 -330 l-16 -35 5 35 c3 19 12 69
22 110 13 62 16 127 15 375 -2 405 -19 550 -78 672 -44 92 -36 134 16 79z
m5031 -20 c24 -65 40 -262 46 -583 6 -335 -6 -715 -25 -764 -8 -23 -9 -22 -15
11 -21 119 -56 1220 -42 1313 8 52 21 60 36 23z m-4880 -80 c11 -43 24 -135
30 -204 15 -187 15 -890 0 -977 -13 -75 -42 -146 -67 -167 -18 -14 -18 -14 6
77 18 69 34 498 27 730 -3 121 -13 305 -22 409 -19 238 -12 278 26 132z m5109
11 c55 -170 71 -306 71 -606 0 -176 -4 -226 -26 -346 -14 -77 -28 -155 -31
-172 -3 -18 -11 -37 -18 -43 -15 -12 -25 208 -25 559 -1 130 -5 308 -10 396
-9 161 -4 289 11 280 4 -3 17 -33 28 -68z m-109 16 c19 -82 35 -881 21 -1069
-15 -207 -25 -248 -35 -139 -21 251 -36 1231 -19 1248 14 15 22 5 33 -40z
m-4911 -144 c16 -85 32 -181 36 -214 7 -49 9 -55 16 -35 4 14 7 40 8 58 1 17
6 32 13 32 18 0 97 -87 104 -116 11 -43 -44 -234 -67 -234 -4 0 -11 5 -14 10
-11 18 -22 11 -29 -17 -6 -31 -61 -101 -71 -92 -7 7 -23 273 -34 549 -6 171
-5 227 6 217 2 -3 17 -74 32 -158z m5215 -93 c18 -166 21 -364 7 -447 -5 -30
-15 -94 -22 -144 -7 -49 -19 -103 -26 -120 -11 -25 -13 35 -8 400 4 237 9 443
12 459 10 52 21 7 37 -148z m-5477 -236 c3 -156 1 -296 -5 -361 -23 -221 -30
-156 -29 286 0 395 1 434 14 385 9 -36 16 -145 20 -310z m3868 141 c7 -12 -12
-24 -25 -16 -11 7 -4 25 10 25 5 0 11 -4 15 -9z m70 0 c3 -5 1 -13 -5 -16 -15
-9 -43 3 -35 15 8 13 32 13 40 1z m1646 -160 c8 -29 7 -44 -5 -73 -26 -60 -36
-46 -36 48 0 76 2 85 15 74 8 -7 20 -29 26 -49z m-5677 -43 c26 -42 29 -69 11
-109 -26 -57 -40 -49 -40 23 0 35 -4 73 -8 86 -6 17 -5 22 7 22 9 0 22 -10 30
-22z m-69 -79 c-7 -20 -8 -21 -17 -5 -5 9 -7 24 -4 33 10 26 29 -1 21 -28z
m1923 -31 c18 -18 14 -36 -8 -40 -29 -4 -27 -21 4 -36 33 -17 34 -42 2 -42
-31 0 -40 -14 -20 -31 12 -10 20 -10 34 -1 16 10 19 7 24 -23 4 -18 20 -59 36
-91 27 -55 28 -60 12 -77 -13 -15 -14 -20 -3 -26 7 -5 21 -6 31 -4 14 4 40
-28 115 -144 53 -81 106 -158 117 -170 11 -12 17 -26 13 -32 -7 -12 -171 -15
-178 -3 -3 4 -8 21 -11 38 -6 27 -4 32 15 37 28 8 19 32 -13 32 -35 -1 -132
151 -134 209 -1 35 -4 40 -40 53 -22 8 -54 18 -72 23 -55 14 -85 38 -78 65 4
17 0 27 -19 39 -27 18 -34 46 -11 46 7 0 19 7 26 15 10 12 9 16 -5 21 -10 4
-26 2 -36 -4 -15 -10 -18 -6 -24 31 -4 23 -8 49 -11 58 -9 31 22 53 83 60 98
10 138 10 151 -3z m-1304 -47 c3 -5 -9 -18 -28 -29 -30 -18 -35 -27 -38 -64
-3 -41 -4 -43 -43 -49 -59 -10 -74 8 -50 60 18 41 48 74 75 84 25 9 78 8 84
-2z m-62 -198 c16 -20 3 -40 -41 -63 -22 -11 -45 -29 -51 -40 -6 -11 -16 -86
-22 -167 -11 -138 -13 -148 -39 -177 -34 -38 -45 -31 -22 15 15 28 18 64 20
217 1 101 4 195 7 208 6 22 10 23 72 22 38 -2 70 -8 76 -15z m443 -77 c46 -21
55 -29 55 -50 0 -22 5 -26 33 -27 239 -6 336 -15 356 -33 11 -10 18 -22 16
-26 -3 -5 -2 -16 1 -25 5 -12 14 -14 35 -10 31 7 117 -17 157 -43 32 -21 52
-64 52 -110 0 -53 -18 -73 -76 -83 -68 -11 -715 -11 -793 1 -78 11 -113 38
-104 81 5 25 2 29 -16 29 -22 0 -28 14 -11 25 6 3 10 13 10 21 0 12 -9 15 -37
12 -34 -3 -38 0 -41 21 -2 13 -1 39 3 57 5 29 11 35 48 45 62 16 132 57 172
100 42 46 63 48 140 15z m3915 -29 c0 -20 -93 -61 -119 -52 -24 7 -43 -22 -21
-35 14 -9 -18 -102 -68 -200 -23 -44 -35 -56 -58 -60 -26 -5 -29 -9 -26 -38 1
-22 -3 -35 -13 -38 -23 -9 -43 13 -38 40 4 18 0 26 -16 31 -24 7 -28 33 -6 41
20 8 19 41 -2 52 -22 13 -10 40 19 44 30 4 37 38 9 45 -25 6 -26 19 -5 93 l16
57 111 -1 c81 0 123 5 152 16 50 21 65 22 65 5z m-3235 -86 c63 -29 134 -98
163 -158 14 -30 14 -36 -2 -75 -10 -24 -22 -53 -27 -65 -7 -19 -16 -23 -53
-23 -25 0 -47 4 -51 9 -3 6 9 26 26 46 46 52 42 102 -13 183 -20 29 -47 52
-84 70 -30 14 -54 30 -54 34 0 15 36 8 95 -21z m3465 -82 c10 -24 9 -35 -8
-71 -12 -24 -27 -64 -33 -90 -13 -48 -26 -58 -76 -58 -29 0 -32 41 -4 67 44
43 51 81 20 124 -22 31 -20 54 8 98 l15 23 33 -32 c19 -18 39 -45 45 -61z
m-828 -59 c-6 -11 -12 -29 -12 -40 0 -24 -18 -27 -27 -4 -9 23 27 88 41 74 7
-7 7 -16 -2 -30z m678 1 c0 -9 -9 -27 -20 -41 -13 -17 -20 -41 -20 -74 0 -40
-2 -47 -14 -37 -34 28 -26 149 11 170 22 12 43 3 43 -18z m-4360 -173 c0 -6
-10 -22 -22 -35 -17 -18 -19 -26 -10 -35 16 -16 15 -38 -2 -38 -18 0 -68 59
-63 74 4 12 65 46 85 46 6 0 12 -5 12 -12z m130 -21 c0 -7 -5 -18 -12 -25 -9
-9 -9 -18 0 -37 12 -27 9 -29 -33 -25 -45 4 -52 57 -12 85 26 18 57 19 57 2z
m239 -20 c-16 -12 -23 -27 -21 -43 4 -32 -15 -31 -50 3 -35 34 -35 51 0 59 15
3 31 7 37 8 5 1 20 0 34 -2 l24 -5 -24 -20z m200 24 c11 -7 4 -15 -29 -36
l-42 -27 21 -22 c27 -28 27 -42 -1 -49 -27 -7 -70 15 -97 50 -19 23 -20 28 -7
41 13 14 109 51 131 52 6 0 16 -4 24 -9z m155 2 c4 -4 -8 -20 -26 -34 l-33
-27 17 -35 c19 -40 16 -47 -23 -47 -31 0 -81 45 -77 69 4 18 95 81 117 81 10
0 21 -3 25 -7z m262 -8 c4 -9 -4 -23 -17 -35 l-24 -19 23 -41 c13 -22 20 -45
17 -50 -3 -6 -26 -10 -49 -10 -35 0 -47 5 -60 25 -30 46 -16 93 37 125 38 24
66 25 73 5z m-746 -9 c0 -8 -5 -18 -11 -22 -6 -3 -8 -17 -5 -30 5 -19 2 -24
-13 -24 -34 0 -59 51 -35 75 20 19 64 20 64 1z m610 7 c0 -4 -10 -17 -22 -30
-18 -20 -20 -26 -10 -48 21 -45 16 -65 -17 -65 -23 0 -34 8 -52 36 l-22 37 41
38 c36 34 82 52 82 32z m684 1 c30 -11 16 -30 -46 -65 -63 -35 -63 -35 -60
-77 2 -37 0 -42 -23 -48 -16 -4 -35 0 -51 11 -29 19 -57 76 -48 99 6 16 50 39
129 67 54 20 75 22 99 13z m2966 -16 c11 -12 19 -29 18 -37 -6 -29 -28 -21
-48 18 -17 34 -18 41 -6 41 9 0 25 -10 36 -22z m-3373 -4 c2 -6 -8 -16 -23
-23 -20 -9 -25 -17 -21 -34 21 -93 21 -87 -6 -87 -44 0 -91 76 -65 107 35 43
106 66 115 37z m620 -1 c3 -7 -15 -22 -39 -34 -24 -12 -58 -32 -76 -46 -31
-23 -33 -28 -27 -64 l7 -39 -45 0 c-35 0 -50 6 -71 26 -50 51 -38 69 77 125
102 49 165 60 174 32z m-430 -10 c3 -7 -14 -21 -36 -33 -44 -22 -51 -42 -25
-72 23 -24 3 -48 -41 -48 -42 0 -75 38 -75 86 0 30 5 36 48 59 50 26 122 31
129 8z m3097 -12 c20 -21 26 -35 22 -48 -7 -16 -12 -13 -42 22 -18 22 -34 43
-34 48 0 17 28 5 54 -22z m-2584 -2 c12 -8 12 -12 2 -16 -7 -3 -25 -15 -40
-28 -24 -21 -25 -25 -15 -58 12 -41 6 -51 -41 -60 -22 -3 -35 1 -53 19 -40 40
-31 66 39 113 64 43 83 48 108 30z m2498 -22 c25 -26 29 -36 20 -45 -20 -20
-33 -14 -61 25 -43 60 -12 75 41 20z m-1511 -30 c56 -57 63 -76 37 -101 -37
-38 -110 -8 -98 40 5 20 -1 33 -27 60 -28 29 -31 36 -19 44 30 19 54 9 107
-43z m-876 32 c19 -10 19 -12 4 -28 -10 -12 -15 -33 -13 -62 l3 -44 -41 -3
c-35 -3 -42 0 -52 23 -18 38 -16 46 25 87 41 42 45 43 74 27z m1007 -31 c33
-32 42 -49 42 -75 0 -27 -5 -35 -27 -44 -38 -14 -56 -4 -50 28 4 20 -3 39 -24
69 -35 51 -36 64 -6 64 14 0 40 -17 65 -42z m305 12 c57 -36 73 -64 58 -103
-10 -26 -15 -28 -53 -25 -44 3 -49 11 -33 49 4 11 -4 29 -25 53 -30 34 -33 56
-6 56 6 0 33 -13 59 -30z m279 20 c46 -13 98 -55 98 -80 0 -9 -10 -29 -21 -44
-17 -22 -28 -27 -58 -24 -34 3 -36 4 -33 37 3 27 -3 40 -30 68 -27 28 -30 35
-18 43 19 12 17 12 62 0z m185 -25 c24 -27 39 -85 29 -111 -3 -9 -15 -14 -28
-12 -18 2 -22 10 -24 42 -1 31 -8 45 -32 66 -18 15 -32 32 -32 39 0 22 62 4
87 -24z m396 -7 c14 -29 16 -42 7 -58 -6 -11 -15 -20 -21 -20 -13 0 -39 63
-39 95 0 39 31 29 53 -17z m107 15 c26 -33 23 -67 -6 -71 -17 -2 -24 5 -33 29
-24 69 -2 93 39 42z m-1535 -29 c19 -26 35 -53 35 -60 0 -21 -41 -44 -78 -44
-31 0 -34 2 -28 23 3 15 -3 35 -19 60 -30 43 -31 54 -7 60 47 12 62 6 97 -39z
m450 15 c39 -35 42 -47 20 -89 -14 -26 -21 -30 -60 -30 -51 0 -59 8 -45 45 9
23 7 33 -14 60 -14 18 -22 35 -19 39 4 3 23 6 44 6 29 0 47 -8 74 -31z m269
-9 c36 -40 53 -80 41 -99 -3 -6 -22 -11 -41 -11 -33 0 -34 1 -34 38 0 20 -9
50 -19 66 -39 59 1 63 53 6z m456 30 c23 -13 43 -70 35 -103 -10 -39 -55 -48
-55 -11 0 9 -12 35 -26 59 -14 25 -23 49 -19 55 8 13 41 13 65 0z m150 -6 c8
-8 14 -34 14 -57 1 -40 0 -42 -29 -42 -26 0 -31 5 -47 48 -10 27 -16 53 -13
58 10 15 61 10 75 -7z m-1949 -14 c14 0 18 -8 18 -37 0 -21 2 -49 3 -63 3 -22
-1 -25 -35 -28 -26 -2 -45 2 -58 14 -24 22 -34 76 -19 104 10 18 18 21 42 16
17 -3 39 -6 49 -6z m501 -35 c28 -58 18 -80 -38 -80 -37 0 -39 2 -36 27 1 16
-2 36 -7 46 -11 20 -4 36 19 45 31 12 41 6 62 -38z m-138 19 c21 -8 32 -70 16
-89 -16 -20 -93 -20 -109 -1 -7 8 -11 30 -9 48 3 29 7 34 38 39 19 4 38 7 42
8 3 0 13 -2 22 -5z m-156 -26 c15 -13 16 -60 0 -76 -15 -15 -67 -16 -103 -2
-24 9 -55 61 -55 91 0 14 138 3 158 -13z m-938 -128 c35 -22 -32 -63 -76 -46
-19 7 -7 36 20 46 28 12 38 12 56 0z m246 -5 c10 -24 -15 -45 -52 -45 -27 0
-34 4 -34 20 0 35 74 57 86 25z m151 -2 c10 -26 -32 -53 -84 -53 -40 0 -44 2
-41 22 6 42 111 68 125 31z m160 2 c11 -29 -26 -55 -79 -55 -41 0 -48 3 -48
19 0 11 10 27 22 35 30 21 97 21 105 1z m163 -2 c0 -33 -31 -53 -82 -53 -41 0
-48 3 -48 19 0 34 28 51 81 51 39 0 49 -3 49 -17z m196 6 c4 -8 9 -8 17 0 6 6
37 11 69 11 55 0 58 -1 58 -24 0 -40 -25 -56 -87 -56 -46 0 -56 3 -60 19 -5
19 -5 19 -24 0 -14 -14 -33 -19 -78 -19 -33 0 -63 4 -66 10 -7 11 12 51 29 62
17 12 134 9 142 -3z m284 -7 c0 -10 -7 -28 -16 -40 -13 -19 -23 -23 -62 -20
-43 3 -47 5 -44 27 4 39 21 51 73 51 40 0 49 -3 49 -18z m-2006 2 c23 -9 1
-34 -30 -34 -28 0 -33 26 -6 33 9 3 18 5 19 6 1 0 9 -2 17 -5z m101 -14 c0 -9
-11 -16 -27 -18 -27 -3 -38 14 -21 32 12 12 48 2 48 -14z m100 0 c0 -10 -12
-16 -32 -18 -32 -3 -45 13 -26 32 13 12 58 2 58 -14z m125 5 c0 -18 -43 -37
-65 -29 -18 7 -19 16 -3 32 18 18 68 15 68 -3z m115 5 c11 -17 -15 -40 -46
-40 -35 0 -44 13 -23 34 18 18 60 21 69 6z m135 -3 c0 -22 -23 -37 -56 -37
-39 0 -50 13 -28 34 19 20 84 22 84 3z m123 6 c14 -13 -27 -43 -60 -43 -34 0
-43 16 -21 38 13 13 70 17 81 5z m241 -1 c11 -19 -36 -52 -73 -52 -24 0 -29
28 -9 48 13 13 74 16 82 4z m1200 -8 c10 -27 -13 -44 -61 -44 -45 0 -61 14
-49 45 8 22 102 21 110 -1z m134 7 c8 -5 12 -17 10 -27 -2 -15 -14 -20 -51
-22 -49 -3 -66 10 -53 43 6 17 71 21 94 6z m136 -1 c26 -9 35 -34 16 -45 -20
-12 -82 -8 -97 8 -13 13 -14 19 -3 31 14 18 47 20 84 6z m129 -9 c17 -17 -5
-41 -39 -41 -29 0 -34 3 -34 23 0 13 3 27 7 31 8 8 54 -1 66 -13z m106 5 c18
-21 2 -46 -29 -46 -36 0 -57 24 -40 45 16 19 54 19 69 1z m116 -16 c0 -22 -4
-25 -35 -25 -26 0 -36 5 -38 19 -5 23 15 37 48 34 19 -2 25 -9 25 -28z m-2945
11 c0 -6 -4 -13 -10 -16 -5 -3 -10 1 -10 9 0 9 5 16 10 16 6 0 10 -4 10 -9z
m90 -6 c-7 -8 -19 -15 -26 -15 -8 0 -14 7 -14 15 0 10 10 15 26 15 22 0 25 -2
14 -15z m2965 -10 c0 -15 -8 -21 -29 -23 -33 -4 -51 10 -42 33 9 25 71 16 71
-10z m114 12 c15 -19 4 -27 -35 -27 -34 0 -50 12 -39 30 9 15 61 12 74 -3z
m110 0 c14 -18 4 -27 -30 -27 -29 0 -44 13 -34 30 9 15 51 12 64 -3z m106 -7
c0 -16 -28 -25 -50 -16 -9 3 -12 12 -9 21 8 21 59 16 59 -5z m113 -2 c-3 -7
-15 -13 -28 -13 -13 0 -25 6 -27 13 -3 8 6 12 27 12 21 0 30 -4 28 -12z m82
-3 c0 -15 -43 -12 -48 3 -3 10 4 13 22 10 15 -2 26 -7 26 -13z m90 0 c0 -15
-43 -12 -48 3 -3 10 4 13 22 10 15 -2 26 -7 26 -13z m84 6 c7 -11 -22 -23 -35
-15 -5 3 -9 9 -9 15 0 12 37 12 44 0z m60 -12 c-3 -5 -10 -7 -15 -3 -5 3 -7
10 -3 15 3 5 10 7 15 3 5 -3 7 -10 3 -15z m-3445 -68 c11 -7 12 -23 7 -67 -4
-32 -9 -60 -12 -63 -11 -12 -40 18 -52 55 -21 62 11 104 57 75z m188 -30 c13
-19 23 -49 23 -67 0 -28 -4 -35 -27 -40 -20 -5 -30 -2 -43 14 -19 23 -35 105
-25 123 13 19 49 4 72 -30z m202 20 c6 -10 14 -44 17 -75 l7 -56 -35 0 c-21 0
-41 7 -51 18 -18 20 -33 93 -24 117 9 23 74 20 86 -4z m167 11 c6 -4 23 -34
38 -66 30 -67 26 -76 -35 -76 -22 0 -42 7 -52 18 -22 24 -33 98 -17 117 13 16
48 20 66 7z m218 -35 c10 -21 19 -52 20 -70 1 -31 0 -32 -45 -35 -57 -4 -75
12 -85 73 -9 66 -2 77 48 73 39 -3 45 -7 62 -41z m183 18 c23 -15 39 -80 28
-115 -5 -16 -15 -20 -50 -20 -52 0 -67 16 -86 94 -10 40 -10 50 2 57 17 12 77
2 106 -16z m2373 0 c12 -32 -1 -66 -36 -94 -49 -39 -72 -22 -34 26 11 14 20
41 20 59 0 27 4 34 20 34 13 0 24 -10 30 -25z m-3522 3 c10 -13 1 -92 -12
-106 -26 -26 -71 73 -46 102 15 19 44 21 58 4z m2365 -1 c13 -9 18 -28 19 -70
2 -63 -7 -77 -52 -77 -35 0 -47 10 -65 53 -22 53 -20 86 8 97 32 13 71 12 90
-3z m164 -57 c7 -36 11 -71 8 -77 -5 -15 -91 -18 -100 -3 -10 17 -24 120 -18
136 4 11 18 14 51 12 l45 -3 14 -65z m513 50 c6 -10 13 -39 16 -62 8 -54 -9
-71 -63 -66 l-38 3 -3 73 -3 72 40 0 c30 0 43 -5 51 -20z m-356 4 c12 -5 16
-20 16 -60 0 -59 -21 -84 -72 -84 -32 0 -37 7 -60 80 -13 42 -14 56 -5 62 14
9 99 11 121 2z m200 -47 c0 -53 -20 -80 -66 -91 -32 -7 -44 9 -54 72 -10 66
-3 73 63 70 l58 -3 -1 -48z m424 30 c39 -31 -16 -107 -79 -107 -20 0 -21 3
-15 52 4 29 12 58 17 64 10 12 57 7 77 -9z m-1914 -2 c3 -9 -2 -39 -12 -68
l-17 -52 -55 0 -55 0 0 51 c1 29 7 59 14 68 18 22 116 23 125 1z m147 -1 c20
-24 16 -84 -6 -100 -29 -21 -92 -18 -105 5 -14 27 -13 84 2 99 18 18 93 15
109 -4z m177 -35 c-6 -61 -15 -71 -65 -73 l-38 -1 -3 49 c-5 71 0 76 59 76
l52 0 -5 -51z m136 29 c10 -40 6 -85 -9 -98 -16 -13 -68 -5 -83 13 -11 14 -21
77 -15 95 3 7 23 12 53 12 41 0 49 -3 54 -22z m170 16 c19 -7 22 -94 4 -112
-16 -16 -80 -15 -100 1 -19 14 -39 82 -31 103 5 15 95 20 127 8z m174 -21 c33
-87 23 -113 -43 -113 -48 0 -58 8 -75 67 -19 62 -10 73 53 73 50 0 55 -2 65
-27z"/>
<path d="M2865 10481 c-64 -29 -189 -132 -173 -142 29 -19 67 -9 113 31 99 86
137 87 216 9 50 -50 63 -57 74 -39 11 18 -54 129 -85 145 -39 20 -96 19 -145
-4z"/>
<path d="M3740 10469 c-33 -13 -65 -44 -102 -97 -27 -39 -29 -46 -15 -59 11
-12 19 -13 36 -4 11 7 21 15 21 19 0 5 15 25 34 45 29 32 40 37 77 37 35 0 53
-7 88 -35 82 -65 112 -36 35 34 -69 64 -120 81 -174 60z"/>
<path d="M3313 9419 c-7 -7 -13 -19 -13 -26 0 -26 -32 -27 -51 -2 -26 35 -37
14 -14 -29 38 -71 100 -48 93 34 -2 28 -5 33 -15 23z"/>
<path d="M3700 9272 c0 -29 -10 -54 -35 -93 -25 -36 -33 -55 -25 -63 15 -15
65 38 79 85 12 41 7 94 -10 104 -5 4 -9 -12 -9 -33z"/>
<path d="M3020 9210 c0 -32 35 -90 55 -90 21 0 19 14 -6 36 -12 10 -28 33 -35
49 -13 29 -13 29 -14 5z"/>
<path d="M3254 3729 c-96 -11 -245 -60 -323 -106 -494 -294 -578 -964 -169
-1359 111 -108 234 -178 388 -220 93 -26 319 -26 415 0 309 82 543 314 626
621 30 111 30 306 0 420 -64 245 -234 455 -456 562 -151 72 -318 101 -481 82z
m96 -89 c24 0 43 7 55 20 10 11 22 17 27 12 4 -4 -1 -69 -11 -143 -28 -190
-53 -438 -45 -450 8 -14 -15 -29 -33 -22 -8 3 -12 12 -8 21 9 24 -49 435 -75
533 -16 59 -7 76 26 50 16 -13 41 -21 64 -21z m-110 -9 c0 -48 33 -300 60
-456 14 -79 18 -121 11 -128 -11 -11 -9 -15 -71 143 -89 226 -190 428 -190
381 0 -16 122 -308 175 -416 33 -69 50 -115 45 -124 -9 -17 -2 -24 -128 144
-120 160 -250 315 -263 315 -20 0 104 -170 269 -368 66 -80 91 -117 84 -124
-8 -8 -28 4 -69 39 -74 64 -245 192 -356 268 -86 58 -98 75 -52 75 39 0 85 46
85 86 0 23 5 34 14 34 8 0 16 6 18 12 3 8 20 11 44 10 45 -4 94 27 94 58 0 23
20 37 30 20 5 -8 9 -5 13 9 5 21 6 21 41 4 33 -15 38 -16 70 0 19 9 37 25 41
36 11 37 35 25 35 -18z m255 21 c10 -33 94 -57 110 -32 9 14 35 13 35 -2 0 -6
-14 -40 -30 -75 -39 -82 -140 -337 -169 -425 -14 -42 -28 -68 -37 -68 -8 0
-14 1 -14 3 0 1 9 65 20 142 24 174 41 342 42 418 1 48 4 57 19 57 10 0 20 -8
24 -18z m193 -59 c5 -37 51 -66 94 -60 21 3 40 1 43 -4 3 -5 -12 -28 -33 -51
-52 -58 -255 -328 -295 -394 -31 -51 -49 -65 -62 -45 -3 5 4 24 14 43 41 69
201 487 201 524 0 24 35 12 38 -13z m172 -104 c0 -46 39 -88 81 -89 35 0 64
-43 60 -88 -3 -35 29 -82 55 -82 7 0 22 -13 33 -29 19 -27 20 -31 5 -60 -19
-37 -11 -66 26 -101 37 -35 45 -72 20 -95 -26 -24 -26 -78 0 -115 24 -34 12
-47 -28 -31 -67 27 -568 76 -547 53 15 -16 233 -44 508 -67 42 -4 77 -11 77
-17 0 -5 -13 -23 -30 -38 -34 -32 -39 -72 -14 -108 14 -20 14 -23 -1 -28 -9
-4 -14 -13 -11 -20 3 -9 -7 -19 -29 -28 -41 -17 -59 -48 -52 -91 9 -56 -6 -62
-54 -18 -75 67 -307 243 -406 308 -39 25 -57 55 -33 55 5 0 68 -25 140 -55
136 -58 393 -155 410 -155 20 0 10 17 -17 29 -72 33 -338 138 -423 167 l-95
32 1 39 1 38 114 13 c115 12 470 69 477 76 2 2 -5 7 -16 11 -32 9 -436 -47
-532 -75 -19 -5 -36 -10 -37 -10 -3 0 -33 63 -33 70 0 4 46 41 103 83 109 80
333 263 356 290 8 11 9 17 2 17 -20 0 -397 -295 -445 -349 -11 -11 -25 -21
-32 -21 -25 0 -24 19 2 47 40 43 246 319 298 401 46 70 66 83 66 41z m-1116
-163 c22 -27 325 -257 424 -321 23 -15 42 -31 42 -35 0 -16 -33 -20 -49 -7
-34 29 -483 207 -523 207 -27 0 -19 34 9 38 38 5 66 51 59 94 -5 31 -3 38 10
38 9 0 22 -6 28 -14z m16 -225 c74 -32 198 -82 275 -111 209 -78 211 -90 9
-61 -197 29 -426 51 -451 45 -35 -10 -34 12 2 49 38 39 44 70 20 103 -13 19
-11 34 4 34 3 0 67 -26 141 -59z m644 -105 c97 -40 111 -173 24 -226 -139 -85
-275 113 -144 210 42 31 75 35 120 16z m-692 -56 c154 -23 413 -50 443 -47 14
1 20 -4 20 -18 0 -14 -6 -19 -20 -18 -45 4 -462 -56 -535 -77 -19 -5 -41 -10
-47 -10 -20 0 -15 25 7 45 12 11 20 31 20 50 0 18 -9 44 -20 58 -35 44 -43 43
132 17z m478 -115 c0 -8 -12 -18 -27 -21 -78 -20 -513 -211 -513 -225 0 -13
-27 -11 -36 2 -3 6 -1 16 5 22 6 6 11 28 11 48 0 29 -7 43 -30 62 -16 14 -30
30 -30 35 0 5 37 13 83 16 84 7 389 50 462 65 61 13 75 12 75 -4z m17 -42 c2
-5 -45 -45 -104 -89 -123 -90 -330 -256 -355 -286 -24 -27 -38 -15 -31 26 7
42 -17 81 -58 95 -16 5 -29 14 -29 18 0 5 82 41 183 81 100 40 225 94 277 121
97 48 111 53 117 34z m30 -39 c1 -5 -34 -54 -78 -109 -44 -55 -128 -166 -186
-248 -58 -81 -108 -145 -111 -143 -2 3 -6 20 -8 38 -5 41 -45 78 -85 78 -46 0
-35 22 34 67 87 58 290 218 357 280 52 50 70 58 77 37z m366 -67 c120 -98 332
-255 365 -270 30 -14 23 -31 -14 -35 -42 -5 -74 -39 -74 -78 0 -18 -4 -35 -9
-39 -5 -3 -61 63 -123 147 -63 84 -149 194 -191 245 -74 87 -89 113 -67 113 6
0 56 -37 113 -83z m-360 -54 c-50 -107 -146 -349 -170 -427 -16 -53 -43 -77
-43 -38 -1 42 -55 77 -106 67 -30 -5 -34 -3 -34 15 0 11 4 20 9 20 12 0 189
224 291 368 91 127 113 125 53 -5z m264 45 c51 -77 241 -318 295 -375 45 -46
43 -64 -5 -56 -37 6 -87 -26 -87 -57 0 -9 -7 -23 -15 -30 -12 -10 -16 -9 -21
6 -57 166 -220 544 -235 544 -5 0 -6 7 -3 15 11 28 30 15 71 -47z m-183 35 c4
-5 18 -8 29 -8 17 0 23 -7 25 -30 8 -94 37 -309 58 -434 13 -79 22 -146 20
-149 -3 -2 -17 5 -32 17 -34 26 -74 27 -107 1 -38 -30 -51 -26 -43 13 23 110
66 445 66 515 0 23 -4 42 -10 42 -5 0 -10 -2 -10 -5 0 -3 -7 -51 -15 -107 -23
-149 -45 -355 -45 -415 0 -60 -12 -74 -35 -39 -9 13 -30 30 -46 36 -26 11 -36
10 -65 -3 -29 -14 -35 -15 -40 -3 -3 8 1 25 10 38 25 39 196 456 196 480 0 4
4 18 10 32 10 26 21 32 34 19z m128 -78 c39 -110 178 -427 196 -447 8 -10 12
-24 9 -33 -7 -17 -23 -20 -32 -5 -3 6 -21 10 -39 10 -30 0 -48 -12 -84 -55 -7
-8 -17 -13 -21 -11 -4 3 -11 49 -14 103 -8 109 -50 407 -67 466 -11 39 -6 61
13 54 6 -2 23 -39 39 -82z"/>
<path d="M4030 3183 c-195 -75 -490 -209 -490 -224 0 -13 20 -7 150 46 142 59
321 140 362 165 25 15 28 20 13 19 -11 0 -27 -3 -35 -6z"/>
<path d="M3305 2935 c-53 -52 -18 -135 57 -135 70 0 103 86 53 135 -15 16 -36
25 -55 25 -19 0 -40 -9 -55 -25z"/>
<path d="M2310 3575 c-11 -13 -9 -15 15 -15 16 0 25 5 23 12 -7 19 -24 20 -38
3z"/>
<path d="M1905 3570 c-7 -11 2 -30 13 -30 4 0 14 5 22 10 13 9 13 11 0 20 -19
12 -27 12 -35 0z"/>
<path d="M1980 3565 c0 -11 7 -15 23 -13 12 2 22 8 22 13 0 6 -10 11 -22 13
-16 2 -23 -2 -23 -13z"/>
<path d="M2055 3570 c-8 -12 20 -24 35 -15 6 3 8 11 5 16 -8 12 -32 12 -40 -1z"/>
<path d="M2125 3570 c-8 -12 20 -24 35 -15 6 3 8 11 5 16 -8 12 -32 12 -40 -1z"/>
<path d="M2205 3570 c-8 -12 20 -24 35 -15 6 3 8 11 5 16 -8 12 -32 12 -40 -1z"/>
<path d="M1790 3555 c0 -11 7 -15 23 -13 12 2 22 8 22 13 0 6 -10 11 -22 13
-16 2 -23 -2 -23 -13z"/>
<path d="M1537 3553 c-3 -5 -2 -15 3 -22 10 -17 43 -6 38 12 -6 15 -34 22 -41
10z"/>
<path d="M1631 3551 c-18 -12 -5 -31 20 -31 14 0 19 6 17 17 -4 20 -18 26 -37
14z"/>
<path d="M1715 3550 c-4 -7 -3 -16 3 -22 14 -14 45 -2 40 15 -6 16 -34 21 -43
7z"/>
<path d="M1980 3465 c0 -11 7 -15 23 -13 12 2 22 8 22 13 0 6 -10 11 -22 13
-16 2 -23 -2 -23 -13z"/>
<path d="M2055 3470 c-8 -12 20 -24 35 -15 6 3 8 11 5 16 -8 12 -32 12 -40 -1z"/>
<path d="M2127 3474 c-14 -14 -6 -24 19 -24 16 0 24 5 22 13 -5 14 -31 21 -41
11z"/>
<path d="M1540 3455 c0 -8 9 -15 20 -15 11 0 20 7 20 15 0 8 -9 15 -20 15 -11
0 -20 -7 -20 -15z"/>
<path d="M1637 3464 c-14 -14 -6 -24 19 -24 16 0 24 5 22 13 -5 14 -31 21 -41
11z"/>
<path d="M1717 3464 c-10 -11 3 -24 24 -24 10 0 19 7 19 15 0 15 -31 21 -43 9z"/>
<path d="M1800 3455 c0 -8 9 -15 20 -15 11 0 20 7 20 15 0 8 -9 15 -20 15 -11
0 -20 -7 -20 -15z"/>
<path d="M1900 3455 c0 -8 9 -15 20 -15 11 0 20 7 20 15 0 8 -9 15 -20 15 -11
0 -20 -7 -20 -15z"/>
<path d="M1807 3354 c-14 -15 -6 -34 14 -34 14 0 19 5 17 17 -3 18 -20 27 -31
17z"/>
<path d="M1907 3354 c-14 -14 -6 -24 19 -24 16 0 24 5 22 13 -5 14 -31 21 -41
11z"/>
<path d="M2072 3353 c-17 -7 -5 -23 19 -23 10 0 19 7 19 15 0 15 -14 18 -38 8z"/>
<path d="M1540 3330 c0 -15 5 -20 18 -18 9 2 17 10 17 18 0 8 -8 16 -17 18
-13 2 -18 -3 -18 -18z"/>
<path d="M1635 3340 c-4 -7 -3 -16 3 -22 14 -14 45 -2 40 15 -6 16 -34 21 -43
7z"/>
<path d="M1715 3340 c-4 -7 -3 -16 3 -22 14 -14 45 -2 40 15 -6 16 -34 21 -43
7z"/>
<path d="M1980 3334 c0 -10 7 -14 22 -12 32 5 35 28 4 28 -17 0 -26 -5 -26
-16z"/>
<path d="M1620 3196 c0 -16 19 -25 38 -19 22 8 13 33 -13 33 -15 0 -25 -6 -25
-14z"/>
<path d="M1715 3200 c-4 -7 -3 -16 3 -22 14 -14 45 -2 40 15 -6 16 -34 21 -43
7z"/>
<path d="M1800 3189 c0 -14 5 -19 17 -17 26 5 29 38 4 38 -15 0 -21 -6 -21
-21z"/>
<path d="M1900 3196 c0 -8 6 -16 13 -19 19 -7 41 8 33 22 -10 16 -46 14 -46
-3z"/>
<path d="M1980 3197 c0 -19 10 -27 26 -20 21 8 17 33 -6 33 -11 0 -20 -6 -20
-13z"/>
<path d="M1647 3093 c-14 -13 -6 -23 18 -23 16 0 25 6 25 15 0 15 -31 21 -43
8z"/>
<path d="M1730 3085 c0 -8 9 -15 20 -15 11 0 20 7 20 15 0 8 -9 15 -20 15 -11
0 -20 -7 -20 -15z"/>
<path d="M1800 3085 c0 -8 9 -15 20 -15 11 0 20 7 20 15 0 8 -9 15 -20 15 -11
0 -20 -7 -20 -15z"/>
<path d="M1900 3085 c0 -11 7 -15 23 -13 12 2 22 8 22 13 0 6 -10 11 -22 13
-16 2 -23 -2 -23 -13z"/>
<path d="M1980 3085 c0 -11 7 -15 23 -13 12 2 22 8 22 13 0 6 -10 11 -22 13
-16 2 -23 -2 -23 -13z"/>
<path d="M1907 3014 c-10 -11 3 -24 24 -24 10 0 19 7 19 15 0 15 -31 21 -43 9z"/>
<path d="M1980 3004 c0 -10 7 -14 22 -12 32 5 35 28 4 28 -17 0 -26 -5 -26
-16z"/>
<path d="M2075 3010 c-8 -12 20 -24 35 -15 6 3 8 11 5 16 -8 12 -32 12 -40 -1z"/>
<path d="M1054 3505 c-4 -8 -3 -23 1 -32 7 -17 8 -16 15 2 5 11 9 26 9 33 1
17 -18 15 -25 -3z"/>
<path d="M1094 3464 c-4 -14 -2 -30 4 -36 12 -12 15 -7 25 40 7 32 -21 29 -29
-4z"/>
<path d="M1160 3442 c-17 -13 -21 -24 -16 -40 10 -31 19 -27 38 13 18 41 9 52
-22 27z"/>
<path d="M1206 3345 c-18 -27 -22 -80 -6 -90 11 -7 40 58 40 91 0 31 -13 31
-34 -1z"/>
<path d="M1256 3260 c-27 -33 -33 -55 -16 -65 14 -9 65 74 53 86 -7 7 -19 0
-37 -21z"/>
<path d="M1303 3178 c-25 -28 -33 -51 -24 -66 5 -8 16 -3 33 15 32 35 45 73
25 73 -7 0 -23 -10 -34 -22z"/>
<path d="M1338 3102 c-34 -36 -51 -70 -44 -88 7 -18 36 -18 36 0 0 8 11 28 25
44 43 51 27 92 -17 44z"/>
<path d="M1355 3000 c-19 -36 -19 -64 -1 -79 18 -15 30 5 40 67 5 33 3 42 -9
42 -8 0 -21 -13 -30 -30z"/>
<path d="M1416 2958 c-19 -62 -15 -118 9 -118 18 0 21 11 17 75 -4 50 -17 73
-26 43z"/>
<path d="M1502 2878 c6 -16 36 -34 44 -25 9 9 -15 37 -33 37 -8 0 -13 -5 -11
-12z"/>
<path d="M4654 3356 c-55 -24 -104 -112 -55 -99 12 3 20 -2 24 -16 7 -27 33
-27 40 -1 6 23 37 27 37 5 0 -8 -9 -19 -21 -26 -26 -13 -11 -34 18 -25 53 17
82 79 43 91 -24 7 -26 37 -5 55 8 7 15 16 15 21 0 13 -61 10 -96 -5z"/>
<path d="M4976 3044 c-9 -23 -8 -24 13 -24 19 0 35 23 24 34 -12 11 -31 6 -37
-10z"/>
<path d="M4419 2489 c-11 -6 -11 -11 -2 -20 12 -12 43 -6 43 10 0 14 -25 20
-41 10z"/>
<path d="M4320 2374 c0 -9 7 -14 17 -12 25 5 28 28 4 28 -12 0 -21 -6 -21 -16z"/>
<path d="M4410 2375 c0 -8 9 -15 20 -15 11 0 20 7 20 15 0 8 -9 15 -20 15 -11
0 -20 -7 -20 -15z"/>
<path d="M4500 2375 c0 -8 9 -15 20 -15 11 0 20 7 20 15 0 8 -9 15 -20 15 -11
0 -20 -7 -20 -15z"/>
<path d="M4220 2276 c0 -11 9 -16 26 -16 31 0 28 23 -4 28 -15 2 -22 -2 -22
-12z"/>
<path d="M4320 2276 c0 -10 9 -16 21 -16 24 0 21 23 -4 28 -10 2 -17 -3 -17
-12z"/>
<path d="M4400 2276 c0 -10 9 -16 21 -16 24 0 21 23 -4 28 -10 2 -17 -3 -17
-12z"/>
<path d="M4307 2163 c-14 -13 -6 -23 18 -23 16 0 25 6 25 15 0 15 -31 21 -43
8z"/>
<path d="M4387 2163 c-14 -13 -6 -23 18 -23 16 0 25 6 25 15 0 15 -31 21 -43
8z"/>
<path d="M4120 2141 c0 -15 16 -22 34 -15 25 9 19 24 -9 24 -14 0 -25 -4 -25
-9z"/>
<path d="M4220 2134 c0 -10 7 -14 22 -12 32 5 35 28 4 28 -17 0 -26 -5 -26
-16z"/>
<path d="M4136 2051 c-3 -5 0 -14 8 -20 10 -8 16 -8 25 2 6 8 8 17 4 20 -9 10
-31 9 -37 -2z"/>
<path d="M4220 2046 c0 -8 4 -17 8 -20 13 -8 35 11 28 23 -10 16 -36 14 -36
-3z"/>
<path d="M4316 2051 c-3 -5 0 -13 7 -19 15 -13 42 1 33 17 -9 13 -33 15 -40 2z"/>
<path d="M4040 2036 c0 -10 9 -16 21 -16 24 0 21 23 -4 28 -10 2 -17 -3 -17
-12z"/>
<path d="M4257 3573 c-14 -13 -7 -33 11 -33 24 0 32 8 25 26 -5 15 -25 19 -36
7z"/>
<path d="M4340 3561 c0 -15 6 -21 21 -21 14 0 19 5 17 17 -5 26 -38 29 -38 4z"/>
<path d="M4340 3449 c0 -25 33 -22 38 4 2 12 -3 17 -17 17 -15 0 -21 -6 -21
-21z"/>
<path d="M4357 3373 c-14 -13 -6 -33 13 -33 13 0 20 7 20 20 0 19 -20 27 -33
13z"/>
<path d="M4367 3253 c-16 -15 -6 -33 18 -33 28 0 34 24 9 34 -19 7 -19 7 -27
-1z"/>
<path d="M4920 3536 c0 -16 27 -29 41 -20 19 11 9 34 -16 34 -15 0 -25 -6 -25
-14z"/>
<path d="M5000 3429 c0 -14 5 -19 17 -17 26 5 29 38 4 38 -15 0 -21 -6 -21
-21z"/>
<path d="M5070 3435 c0 -21 30 -31 40 -14 11 17 3 29 -21 29 -10 0 -19 -7 -19
-15z"/>
<path d="M5173 3433 c-18 -7 -16 -30 4 -37 21 -8 38 8 30 28 -7 16 -13 18 -34
9z"/>
<path d="M5082 3313 c2 -10 12 -18 23 -18 11 0 21 8 23 18 3 13 -3 17 -23 17
-20 0 -26 -4 -23 -17z"/>
<path d="M5173 3319 c-16 -16 -5 -39 19 -39 14 0 19 6 16 22 -4 25 -19 33 -35
17z"/>
<path d="M5274 3305 c-4 -9 -2 -21 4 -27 15 -15 44 -1 40 19 -4 23 -36 29 -44
8z"/>
<path d="M5290 3190 c0 -13 7 -20 20 -20 13 0 20 7 20 20 0 13 -7 20 -20 20
-13 0 -20 -7 -20 -20z"/>
<path d="M5303 3123 c-22 -8 -15 -43 7 -43 13 0 20 7 20 19 0 22 -9 30 -27 24z"/>
<path d="M5294 3025 c-4 -9 -2 -21 4 -27 15 -15 44 -1 40 19 -4 23 -36 29 -44
8z"/>
<path d="M2121 2711 c-11 -7 -10 -11 7 -20 30 -16 42 -14 42 9 0 21 -24 27
-49 11z"/>
<path d="M2220 2700 c0 -21 16 -26 39 -11 18 11 5 31 -20 31 -12 0 -19 -7 -19
-20z"/>
<path d="M2220 2620 c0 -16 5 -21 23 -18 12 2 22 10 22 18 0 8 -10 16 -22 18
-18 3 -23 -2 -23 -18z"/>
<path d="M2337 2534 c-16 -16 -6 -35 16 -32 12 2 22 10 22 18 0 16 -26 25 -38
14z"/>
<path d="M2235 2511 c-9 -16 3 -31 26 -31 14 0 19 6 17 17 -4 20 -33 29 -43
14z"/>
<path d="M2446 2293 c-13 -14 -5 -33 14 -33 11 0 20 6 20 14 0 15 -24 28 -34
19z"/>
<path d="M1297 2394 c-16 -16 -6 -34 19 -34 19 0 25 5 22 17 -3 19 -29 29 -41
17z"/>
<path d="M1387 2394 c-16 -16 -6 -34 19 -34 19 0 25 5 22 17 -3 19 -29 29 -41
17z"/>
<path d="M1117 2298 c-6 -21 14 -34 38 -24 19 7 9 33 -15 39 -12 3 -20 -2 -23
-15z"/>
<path d="M1210 2285 c0 -21 30 -31 40 -14 11 17 3 29 -21 29 -10 0 -19 -7 -19
-15z"/>
<path d="M1292 2283 c4 -22 43 -25 43 -3 0 8 -11 16 -23 18 -19 3 -23 0 -20
-15z"/>
<path d="M1390 2285 c0 -21 30 -31 40 -14 11 17 3 29 -21 29 -10 0 -19 -7 -19
-15z"/>
<path d="M1471 2286 c-10 -12 -8 -17 7 -25 15 -8 23 -7 32 4 13 16 6 35 -14
35 -8 0 -19 -6 -25 -14z"/>
<path d="M1554 2285 c-8 -19 12 -36 33 -28 19 7 12 37 -10 41 -9 2 -20 -4 -23
-13z"/>
<path d="M1795 2280 c-4 -7 -3 -16 3 -22 14 -14 45 -2 40 15 -6 16 -34 21 -43
7z"/>
<path d="M1616 2271 c-9 -13 19 -32 38 -25 25 10 19 34 -8 34 -14 0 -27 -4
-30 -9z"/>
<path d="M1710 2265 c0 -21 30 -31 40 -14 11 17 3 29 -21 29 -10 0 -19 -7 -19
-15z"/>
<path d="M1212 2183 c4 -22 43 -25 43 -3 0 8 -11 16 -23 18 -19 3 -23 0 -20
-15z"/>
<path d="M1307 2194 c-16 -16 -6 -34 19 -34 19 0 25 5 22 17 -3 19 -29 29 -41
17z"/>
<path d="M1382 2163 c2 -10 12 -18 23 -18 11 0 21 8 23 18 3 13 -3 17 -23 17
-20 0 -26 -4 -23 -17z"/>
<path d="M1477 2174 c-16 -16 -6 -35 16 -32 12 2 22 10 22 18 0 16 -26 25 -38
14z"/>
<path d="M1556 2172 c-9 -14 12 -35 28 -29 23 9 20 37 -3 37 -11 0 -22 -4 -25
-8z"/>
<path d="M1635 2171 c-9 -16 3 -31 26 -31 14 0 19 6 17 17 -4 20 -33 29 -43
14z"/>
<path d="M1727 2173 c-14 -13 -6 -33 12 -33 25 0 38 20 20 31 -17 11 -24 11
-32 2z"/>
<path d="M1797 2173 c-3 -5 -2 -15 3 -22 10 -17 43 -6 38 12 -6 15 -34 22 -41
10z"/>
<path d="M1893 2173 c-24 -9 -14 -33 13 -33 18 0 25 5 22 17 -3 18 -16 24 -35
16z"/>
<path d="M1980 2160 c0 -13 7 -20 19 -20 25 0 38 20 20 31 -23 15 -39 10 -39
-11z"/>
<path d="M1223 2093 c-7 -3 -13 -11 -13 -18 0 -15 19 -24 38 -18 6 3 12 11 12
18 0 15 -19 24 -37 18z"/>
<path d="M1318 2074 c-6 -5 1 -44 7 -44 17 0 35 16 35 31 0 18 -29 27 -42 13z"/>
<path d="M1394 2069 c-3 -6 0 -17 8 -25 13 -13 16 -13 27 0 7 8 10 20 6 26 -8
13 -32 13 -41 -1z"/>
<path d="M1477 2073 c-3 -5 -2 -15 3 -22 10 -17 43 -6 38 12 -6 15 -34 22 -41
10z"/>
<path d="M1557 2073 c-3 -5 -2 -15 3 -22 10 -17 43 -6 38 12 -6 15 -34 22 -41
10z"/>
<path d="M1634 2065 c-4 -9 -2 -21 4 -27 15 -15 44 -1 40 19 -4 23 -36 29 -44
8z"/>
<path d="M1727 2073 c-4 -3 -7 -15 -7 -25 0 -23 38 -25 47 -2 8 21 -24 43 -40
27z"/>
<path d="M1796 2071 c-3 -4 0 -16 7 -25 12 -16 14 -16 26 -2 7 8 10 20 6 26
-8 12 -32 13 -39 1z"/>
<path d="M1890 2070 c-18 -11 -4 -40 20 -40 13 0 20 7 20 19 0 22 -21 33 -40
21z"/>
<path d="M1980 2055 c0 -30 25 -34 39 -6 12 21 5 31 -21 31 -13 0 -18 -7 -18
-25z"/>
<path d="M5077 2343 c-15 -14 -7 -43 12 -43 24 0 33 13 25 34 -6 16 -25 21
-37 9z"/>
<path d="M5045 2230 c-9 -15 4 -30 26 -30 12 0 19 7 19 20 0 21 -33 29 -45 10z"/>
<path d="M5037 2133 c-3 -5 -2 -15 3 -22 10 -17 43 -6 38 12 -6 15 -34 22 -41
10z"/>
<path d="M5328 1042 c-30 -6 -20 -37 25 -86 l43 -46 63 6 62 7 42 -48 c108
-124 115 -130 128 -118 10 10 6 21 -17 54 -52 76 -163 186 -206 206 -44 21
-110 32 -140 25z"/>
<path d="M2485 1030 c-8 -13 48 -91 76 -106 14 -7 37 -8 63 -3 55 10 86 -9
155 -94 32 -40 61 -67 72 -67 24 0 24 8 0 43 -48 73 -167 191 -215 213 -53 25
-140 32 -151 14z"/>
<path d="M719 713 c-4 -41 1 -67 13 -75 7 -4 48 -8 91 -8 l77 0 0 -59 c0 -79
-13 -111 -44 -111 -14 0 -28 5 -31 10 -9 14 -48 13 -63 -2 -19 -19 -14 -91 11
-140 30 -58 150 -209 220 -276 55 -51 90 -65 100 -38 8 21 -23 60 -98 123 -79
66 -92 100 -58 151 10 15 25 39 33 55 17 34 36 34 80 -3 32 -28 39 -30 121
-30 l87 0 4 -114 3 -115 34 -35 c19 -20 41 -36 48 -36 10 0 13 62 13 309 0
272 2 310 16 315 9 3 145 6 304 6 318 0 300 4 300 -66 0 -49 -37 -84 -87 -84
-21 0 -103 -1 -183 -3 -135 -2 -148 -4 -182 -27 -76 -51 -96 -133 -54 -221 42
-88 176 -229 218 -229 35 0 17 34 -52 99 -72 68 -90 100 -90 154 0 44 19 77
59 104 30 20 46 23 135 23 l101 0 48 -65 c80 -108 187 -150 281 -111 21 9 40
16 42 16 2 0 4 -25 4 -55 0 -63 14 -97 59 -139 58 -55 59 -49 55 278 -2 163
-1 303 2 311 5 12 25 15 100 15 l94 0 0 -120 0 -120 -41 -6 c-50 -8 -68 -38
-48 -77 29 -53 128 -147 156 -147 21 0 43 31 43 60 0 59 3 60 121 60 l109 0 0
-90 c0 -96 10 -128 52 -167 54 -50 53 -55 58 287 l5 315 225 0 225 0 3 -82 c2
-46 -1 -83 -5 -83 -4 0 -35 14 -68 31 -53 27 -67 30 -118 25 -72 -7 -112 -28
-133 -68 -46 -89 43 -248 155 -278 44 -12 121 0 145 21 26 23 36 8 36 -54 0
-58 3 -67 33 -102 23 -27 39 -37 50 -32 15 6 17 38 19 314 l3 308 38 3 38 3
-3 42 -3 42 -1452 3 c-1379 2 -1453 1 -1454 -15z m539 -163 c4 -123 3 -126
-66 -141 -39 -8 -78 -9 -122 -3 l-65 9 -3 99 c-1 55 0 106 2 113 4 11 32 13
128 11 l123 -3 3 -85z m970 -26 c2 -101 1 -113 -20 -144 -53 -78 -177 -106
-249 -57 -19 12 -34 29 -34 36 0 14 6 18 68 45 55 23 63 50 45 143 -9 43 -13
82 -11 86 3 4 48 6 101 5 l97 -3 3 -111z m647 -9 l0 -120 -117 -3 -118 -3 0
126 0 126 118 -3 117 -3 0 -120z m534 -81 c29 -6 31 -9 31 -50 0 -39 -4 -46
-37 -68 -69 -46 -178 -59 -208 -26 -31 34 2 111 58 135 34 15 105 19 156 9z"/>
<path d="M3904 706 c-3 -14 -3 -34 1 -45 6 -21 12 -21 296 -21 l289 0 0 -80 0
-80 -169 0 c-101 0 -172 -4 -176 -10 -3 -5 14 -31 38 -57 53 -58 67 -82 67
-121 0 -45 -30 -66 -86 -59 -61 6 -112 56 -159 154 -36 74 -60 97 -75 73 -9
-15 18 -92 56 -157 37 -64 120 -149 167 -172 141 -68 234 36 161 181 -32 64
-27 68 89 68 l87 0 0 -149 0 -150 44 -35 c23 -20 48 -36 55 -36 8 0 11 83 11
309 0 272 2 310 16 315 9 3 62 6 119 6 115 0 125 -5 125 -68 0 -49 -27 -71
-102 -84 -80 -13 -82 -19 -36 -92 85 -134 147 -185 236 -193 40 -4 69 0 96 11
21 9 40 16 42 16 2 0 4 -30 4 -66 0 -63 1 -67 44 -111 76 -81 76 -81 76 277
l0 311 227 -2 c125 -1 235 -4 245 -7 15 -4 18 -15 18 -72 l0 -67 -137 -5
c-130 -4 -140 -6 -180 -32 -83 -55 -94 -148 -31 -254 46 -77 167 -202 196
-202 48 0 22 44 -74 127 -62 53 -81 140 -44 200 28 46 76 63 181 63 l89 0 0
-152 c1 -105 4 -158 13 -168 19 -23 77 -70 88 -70 5 0 9 129 9 315 l0 315 24
0 c43 0 67 40 50 84 -6 14 -103 16 -995 16 l-989 0 -6 -24z m1204 -173 c3
-128 -9 -161 -74 -203 -62 -39 -143 -42 -195 -7 -19 12 -34 29 -34 36 0 14 6
18 68 45 55 23 63 49 44 143 -8 43 -13 82 -10 86 2 4 48 6 101 5 l97 -3 3
-102z"/>
</g>
</svg>
