<?xml version="1.0" encoding="UTF-8" standalone="no"?>
<svg
   xmlns:dc="http://purl.org/dc/elements/1.1/"
   xmlns:cc="http://creativecommons.org/ns#"
   xmlns:rdf="http://www.w3.org/1999/02/22-rdf-syntax-ns#"
   xmlns:svg="http://www.w3.org/2000/svg"
   xmlns="http://www.w3.org/2000/svg"
   id="svg6"
   version="1.1"
   width="512.00006pt"
   viewBox="0 -77 512.00219 358.48288"
   height="358.48288pt">
  <metadata
     id="metadata12">
    <rdf:RDF>
      <cc:Work
         rdf:about="">
        <dc:format>image/svg+xml</dc:format>
        <dc:type
           rdf:resource="http://purl.org/dc/dcmitype/StillImage" />
      </cc:Work>
    </rdf:RDF>
  </metadata>
  <defs
     id="defs10" />
  <path
     style="fill:#ff0000"
     id="path2"
     d="m 501.45312,-20.907315 c -5.90234,-21.933594 -23.19531,-39.222656 -45.125,-45.128906 -40.0664,-10.964844 -200.33203,-10.964844 -200.33203,-10.964844 0,0 -160.261715,0 -200.328121,10.546875 -21.507813,5.902344 -39.222657,23.617187 -45.125,45.546875 C 0,19.155185 0,102.24113 0,102.24113 c 0,0 0,83.50389 10.542969,123.14843 5.90625,21.92969 23.195312,39.22266 45.128906,45.12891 C 96.15625,281.48331 256,281.48331 256,281.48331 c 0,0 160.26172,0 200.32812,-10.54687 21.9336,-5.90234 39.22266,-23.19532 45.12891,-45.125 C 512,185.74502 512,102.663 512,102.663 c 0,0 0.42187,-83.507815 -10.54688,-123.570315 z m 0,0" />
  <path
     style="fill:#ffffff"
     id="path4"
     d="M 204.96875,178.99894 338.23828,102.24113 204.96875,25.483315 Z m 0,0" />
</svg>
